<?xml version="1.0" standalone="no"?>
<!DOCTYPE svg PUBLIC "-//W3C//DTD SVG 20010904//EN"
 "http://www.w3.org/TR/2001/REC-SVG-20010904/DTD/svg10.dtd">
<svg version="1.0" xmlns="http://www.w3.org/2000/svg" viewBox="0 0 1586.000000 864.000000" preserveAspectRatio="xMidYMid meet">
<metadata>
Created by potrace 1.15, written by Peter Selinger 2001-2017
</metadata>
<g transform="translate(0.000000,864.000000) scale(0.100000,-0.100000)"
fill="#000000" stroke="none">
<path d="M0 4320 l0 -4320 1700 0 1700 0 0 4320 0 4320 -1700 0 -1700 0 0
-4320z m1659 1464 c14 -18 21 -41 21 -70 0 -43 0 -44 -34 -44 -30 0 -35 3 -38
28 -2 21 -8 27 -28 27 -23 0 -25 -4 -28 -57 -4 -76 13 -140 36 -136 18 3 30
48 13 48 -6 0 -11 16 -11 35 0 35 0 35 45 35 l45 0 0 -72 c-1 -61 -4 -78 -24
-102 -23 -27 -27 -28 -90 -24 -36 2 -68 0 -70 -4 -3 -5 -3 -3 -2 4 1 7 15 14
29 16 52 6 60 72 12 94 -19 9 -30 7 -51 -7 -25 -16 -26 -21 -21 -74 3 -35 2
-47 -3 -31 -13 41 -11 87 5 100 11 9 15 35 15 103 0 73 4 96 21 123 20 32 24
34 79 34 51 0 61 -3 79 -26z m201 7 c35 -7 35 -7 36 -61 0 -62 42 -240 55
-240 5 0 9 -18 9 -40 0 -44 -4 -46 -62 -29 -37 10 -38 11 -38 58 0 42 -3 49
-22 55 -41 10 -43 8 -39 -45 3 -45 1 -51 -14 -45 -9 3 -32 6 -51 6 -33 0 -34
1 -34 38 0 21 4 42 9 48 5 5 20 45 34 90 18 59 23 95 19 132 l-5 52 34 -6 c19
-4 50 -9 69 -13z m-486 -37 c3 -9 6 -31 6 -49 0 -28 -5 -35 -30 -44 -18 -6
-30 -6 -30 0 0 5 -5 9 -11 9 -12 0 -10 -41 7 -211 l7 -65 -52 -21 -51 -22 7
140 c4 102 3 139 -5 139 -7 0 -12 -6 -12 -13 0 -11 -39 -37 -55 -37 -3 0 -5
23 -5 51 l0 50 73 33 c118 53 122 55 133 55 7 1 15 -6 18 -15z m619 0 l47 -16
1 -61 c0 -34 4 -80 8 -102 l8 -40 13 30 c7 17 12 56 11 88 -1 36 3 57 9 57 6
0 31 -12 56 -26 40 -24 44 -29 44 -65 0 -25 -5 -39 -13 -39 -16 0 -68 -155
-56 -167 5 -5 6 -25 2 -45 l-8 -35 -63 30 -63 29 2 57 c2 67 -29 231 -45 237
-9 4 -11 84 -2 84 1 0 23 -7 49 -16z m-874 -151 c-4 -51 32 -168 57 -189 8 -6
14 -27 14 -46 0 -31 -5 -38 -50 -66 l-50 -31 0 50 0 50 -32 -25 c-29 -22 -32
-29 -29 -74 2 -47 1 -50 -43 -85 -24 -20 -47 -37 -50 -37 -10 0 -7 69 4 88 16
30 47 225 42 274 l-4 47 62 45 c34 25 67 46 72 46 6 0 8 -21 7 -47z m1146 5
c40 -30 44 -37 45 -76 0 -24 -4 -41 -9 -37 -6 3 -11 -35 -13 -91 -2 -53 0 -98
5 -101 11 -7 8 -83 -4 -83 -6 0 -31 16 -55 36 -36 30 -44 43 -44 69 0 19 4 35
10 37 14 5 25 185 11 201 -10 13 -5 77 6 77 2 0 24 -15 48 -32z m137 -115 c10
-11 31 -71 48 -134 l30 -114 -6 88 c-4 48 -4 87 -2 87 3 0 28 -27 56 -61 40
-47 52 -69 52 -94 0 -18 -5 -35 -11 -37 -17 -6 -29 -174 -16 -209 7 -18 7 -35
1 -49 -10 -22 -12 -21 -51 26 -34 41 -44 65 -64 147 -15 64 -26 92 -30 80 -4
-10 -3 -26 2 -35 10 -19 12 -78 3 -78 -3 0 -28 19 -55 42 -43 36 -49 46 -49
79 0 21 5 39 12 41 9 3 13 41 12 141 l0 136 25 -19 c15 -10 34 -26 43 -37z
m-1481 -23 c15 -9 19 -22 19 -71 0 -72 -18 -119 -71 -181 -37 -44 -50 -78 -30
-78 4 0 11 -17 14 -37 7 -39 -1 -53 -73 -133 l-31 -35 6 78 c7 90 -3 219 -16
211 -5 -3 -9 14 -9 38 0 41 6 50 81 131 44 48 83 87 85 87 3 0 14 -5 25 -10z
m538 -250 c0 -107 0 -209 0 -226 1 -17 12 -55 25 -84 27 -58 26 -100 -2 -133
-15 -17 -17 -16 -35 19 l-19 36 26 27 c36 37 33 51 -3 17 -29 -27 -29 -28 -40
-8 -22 41 -41 138 -41 208 0 86 20 151 58 183 39 33 3 19 -65 -26 -108 -71
-182 -205 -189 -343 -7 -124 28 -232 107 -322 l41 -48 106 0 107 0 0 50 c0 28
3 50 7 50 18 0 6 48 -17 70 -14 13 -25 19 -25 13 0 -5 9 -18 19 -27 30 -27 10
-53 -36 -48 -29 4 -41 -1 -72 -32 -25 -25 -43 -35 -54 -30 -18 7 -23 44 -8 60
23 23 14 48 -34 97 l-50 51 48 7 c27 4 59 15 72 23 31 21 30 21 53 -15 19 -30
19 -33 3 -70 -10 -25 -25 -42 -38 -45 -35 -9 -67 -84 -42 -99 13 -8 44 18 75
65 51 75 94 122 99 108 2 -7 11 -38 19 -68 15 -60 31 -67 81 -34 27 18 25 34
-4 34 -25 0 -46 35 -58 98 -9 47 -8 54 8 63 31 16 45 82 30 139 -12 46 -11 53
8 84 12 18 21 47 21 64 l0 31 72 -34 c40 -19 79 -35 88 -36 10 0 11 -2 3 -6
-27 -10 -11 -18 37 -18 28 0 50 2 50 5 0 6 -22 18 -132 72 -42 21 -81 44 -87
52 -6 7 -30 16 -52 20 -38 6 -41 8 -35 32 12 44 -1 64 -40 62 -19 -1 -30 -5
-23 -9 7 -4 8 -12 4 -20 -13 -20 -24 18 -24 86 1 33 2 56 5 50 2 -6 41 -9 96
-6 113 4 180 -10 276 -56 77 -38 158 -109 211 -187 107 -155 119 -381 31 -555
-16 -33 -34 -62 -40 -66 -31 -19 4 -25 151 -25 l160 0 53 -112 53 -111 -66
-63 -66 -63 -710 -1 -710 0 -69 63 -68 64 59 109 60 109 131 3 131 3 -39 72
c-50 92 -70 171 -70 273 0 204 123 403 301 487 49 23 69 37 69 51 0 11 2 17 5
15 2 -3 4 -92 4 -199z m-90 -32 c-23 -77 -11 -213 27 -311 18 -48 19 -44 -16
-62 -30 -16 -106 -20 -127 -7 -6 4 -19 33 -28 66 -22 74 -15 140 20 205 26 47
110 141 126 141 4 0 3 -15 -2 -32z m-67 -1075 c10 -9 18 -30 18 -48 0 -30 -1
-31 -36 -27 -25 3 -38 10 -41 23 -3 12 -14 19 -29 19 -22 0 -24 -4 -24 -55 0
-30 4 -55 9 -55 5 0 16 -3 25 -6 11 -4 16 -1 16 11 0 13 6 16 23 11 12 -3 30
-6 40 -6 13 0 17 -8 17 -33 0 -52 -31 -61 -105 -31 -90 37 -105 55 -105 130 0
77 8 83 104 84 51 0 74 -4 88 -17z m257 -21 c-3 -42 39 -172 58 -179 7 -3 13
-20 13 -39 l0 -34 -56 0 -56 0 4 40 c3 36 1 40 -18 40 -12 0 -29 3 -37 6 -13
4 -14 -2 -10 -36 l6 -41 -39 7 c-68 12 -84 21 -84 49 0 14 5 25 11 25 20 0 67
122 62 163 l-5 37 77 0 77 0 -3 -38z m208 -12 c15 -27 31 -50 34 -50 3 0 18
23 33 50 27 50 28 50 77 50 48 0 49 -1 49 -30 0 -16 -4 -30 -10 -30 -6 0 -10
-30 -10 -70 0 -40 4 -70 10 -70 6 0 10 -13 10 -29 0 -25 -5 -30 -30 -35 -16
-3 -43 -9 -60 -12 -28 -5 -30 -3 -30 23 0 16 5 34 11 40 6 6 9 21 7 34 -3 22
-6 20 -26 -18 -12 -24 -26 -43 -31 -43 -5 0 -21 19 -35 43 l-25 42 -1 -32 c0
-18 5 -33 10 -33 6 0 10 -16 10 -35 l0 -35 -60 0 c-60 0 -60 0 -60 29 0 17 5
33 10 36 6 3 10 39 10 80 0 41 -4 77 -10 80 -5 3 -10 19 -10 36 0 28 1 29 49
29 49 0 50 -1 78 -50z m416 36 c43 -33 2 -98 -73 -113 -32 -6 -53 -34 -32 -41
7 -2 12 -14 12 -26 0 -21 -14 -30 -85 -50 -19 -6 -20 -1 -20 119 l0 125 90 0
c59 -1 96 -5 108 -14z"/>
<path d="M1528 5383 c-12 -3 -18 -14 -18 -32 l0 -27 88 4 c55 3 90 9 94 17 19
31 89 24 88 -9 0 -6 -5 -3 -11 7 -5 9 -13 17 -17 17 -11 0 -7 -47 5 -62 6 -7
13 -34 17 -59 6 -43 5 -46 -16 -45 -43 2 -30 -28 22 -51 l50 -22 -6 42 c-4 23
-15 64 -25 90 -19 49 -25 82 -11 61 4 -6 30 -21 57 -34 62 -29 166 -133 200
-200 41 -81 58 -164 52 -250 -9 -107 -32 -168 -99 -257 l-39 -53 39 0 c43 0
60 17 106 108 79 155 71 353 -21 509 -65 111 -197 208 -324 238 -60 14 -192
19 -231 8z"/>
<path d="M1375 5327 c-33 -17 -88 -60 -122 -93 -173 -173 -202 -450 -69 -658
34 -53 38 -56 76 -56 l40 0 -44 60 c-108 147 -125 325 -47 490 31 67 139 179
198 206 37 17 43 23 43 52 0 17 -3 32 -7 32 -5 0 -35 -15 -68 -33z"/>
<path d="M1800 5285 c0 -3 7 -22 15 -42 8 -19 15 -43 15 -52 0 -46 21 -89 49
-101 29 -12 33 -40 7 -40 -14 0 -76 -61 -76 -75 0 -5 16 6 35 25 30 29 35 31
41 16 4 -10 4 -46 1 -82 -5 -67 -47 -171 -73 -181 -8 -3 -11 -9 -8 -14 3 -5 0
-9 -5 -9 -6 0 -11 -21 -12 -47 0 -27 -5 -57 -10 -68 -7 -15 -8 -10 -4 20 19
160 24 246 14 269 -9 19 -7 33 10 71 25 58 27 87 5 78 -10 -3 -17 1 -20 13 -3
11 -25 28 -52 39 -25 11 -49 21 -52 22 -3 2 -5 -38 -6 -88 -1 -56 -5 -94 -12
-98 -14 -8 -34 -105 -26 -125 3 -8 -4 -28 -16 -45 -16 -20 -21 -37 -16 -54 6
-24 9 -25 63 -20 61 6 70 9 60 19 -3 4 -24 2 -47 -4 -22 -5 -40 -8 -40 -5 0 3
7 20 16 39 22 45 56 47 74 3 17 -41 -2 -183 -29 -220 -12 -16 -16 -31 -11 -39
5 -8 6 -18 3 -22 -5 -10 15 -38 28 -38 5 0 9 13 9 29 0 17 5 33 10 36 6 4 8
15 5 25 -3 11 1 32 10 47 9 15 13 19 10 8 -20 -58 -25 -55 78 -55 l95 0 35 40
c95 105 136 264 103 404 -16 69 -69 176 -87 176 -5 0 -9 6 -9 14 0 17 -89 90
-142 117 -21 11 -38 17 -38 14z"/>
<path d="M937 4478 c-8 -13 -30 -53 -50 -90 l-35 -68 799 0 c440 0 799 3 799
6 0 3 -18 44 -39 90 l-40 84 -313 -2 c-289 -3 -313 -4 -316 -20 -2 -11 3 -18
12 -18 13 0 16 -12 16 -55 0 -41 -4 -55 -14 -55 -8 0 -17 6 -19 13 -4 10 -6
10 -6 0 -1 -7 -8 -13 -16 -13 -11 0 -15 12 -16 43 l-2 42 -6 -40 c-5 -31 -11
-41 -28 -43 -17 -3 -24 3 -29 22 -7 29 -24 25 -24 -5 0 -10 -7 -19 -15 -19
-10 0 -15 10 -15 33 0 51 11 77 31 77 21 0 26 -16 7 -23 -10 -3 -10 -7 -1 -17
9 -10 13 -7 19 14 10 41 24 30 26 -21 l1 -48 4 45 c3 25 8 49 13 54 5 5 6 15
3 22 -4 12 -69 14 -369 14 l-364 0 -13 -22z"/>
<path d="M12040 4320 l0 -4320 1910 0 1910 0 0 4320 0 4320 -1910 0 -1910 0 0
-4320z m2050 2095 c237 -19 506 -117 730 -266 131 -86 325 -282 413 -414 116
-176 195 -363 238 -565 30 -138 32 -415 6 -559 -49 -257 -166 -506 -336 -711
-44 -52 -77 -99 -74 -104 4 -5 1 -6 -4 -3 -13 8 -36 -17 -25 -28 4 -5 2 -5 -4
-2 -6 3 -42 -20 -80 -52 -455 -385 -1072 -483 -1639 -259 -402 158 -736 510
-884 931 -50 143 -72 265 -78 442 -9 272 34 481 151 720 80 162 164 282 286
406 270 275 627 440 1010 468 103 8 139 8 290 -4z"/>
<path d="M13795 6273 c-48 -4 -52 -6 -80 -50 -29 -46 -29 -49 -26 -167 1 -67
4 -122 4 -122 1 -1 23 -4 49 -6 l47 -5 3 116 3 116 35 0 c33 0 35 -2 38 -37
l3 -38 50 0 49 0 0 61 c0 50 -5 68 -27 100 -30 42 -25 41 -148 32z"/>
<path d="M14090 6218 c0 -30 4 -58 9 -63 11 -13 -65 -266 -85 -281 -9 -7 -14
-30 -14 -62 0 -56 -2 -55 102 -65 l37 -3 6 48 c4 26 4 56 0 67 -7 23 7 26 62
15 29 -6 29 -6 29 -76 l-1 -71 64 -18 c36 -10 66 -17 67 -16 8 8 6 110 -2 115
-18 12 -87 304 -74 312 7 4 10 29 8 61 l-3 54 -54 12 c-30 6 -76 15 -103 18
l-48 7 0 -54z"/>
<path d="M13445 6194 c-33 -13 -99 -43 -147 -66 l-88 -41 0 -74 c0 -40 3 -73
6 -73 21 0 84 46 84 62 0 10 4 18 9 18 13 0 24 -271 12 -283 -6 -6 -11 -37
-11 -68 l0 -58 75 32 75 31 0 52 c0 34 -5 56 -14 61 -19 11 -29 283 -10 283 7
0 14 -4 16 -10 2 -6 17 -6 41 2 l37 11 0 74 c0 83 2 82 -85 47z"/>
<path d="M14350 6165 c0 -38 5 -62 14 -69 16 -12 77 -306 64 -306 -4 0 -8 -26
-8 -59 l0 -58 96 -47 c53 -25 98 -46 100 -46 8 0 4 119 -5 125 -5 3 9 59 31
125 35 106 42 120 59 115 17 -6 19 -1 19 48 0 61 2 59 -93 112 l-68 38 2 -74
c1 -48 -4 -96 -16 -137 -10 -34 -19 -61 -21 -59 -12 12 -30 164 -26 223 l4 71
-63 23 c-35 12 -70 25 -76 27 -10 4 -13 -11 -13 -52z"/>
<path d="M13048 5978 c-105 -77 -105 -76 -88 -158 7 -35 3 -79 -21 -205 -16
-88 -34 -169 -40 -180 -5 -12 -9 -45 -7 -75 l3 -54 69 62 70 62 -3 52 c-1 29
-4 60 -7 69 -4 13 56 67 90 80 6 2 8 -25 7 -63 -1 -38 0 -68 3 -68 3 0 34 19
70 41 l66 41 0 59 c0 42 -3 57 -12 54 -9 -3 -29 36 -60 113 -26 64 -43 119
-38 120 12 4 14 122 3 122 -5 0 -52 -33 -105 -72z"/>
<path d="M13853 6043 c-8 -3 -13 -24 -13 -54 0 -38 4 -49 16 -49 11 0 14 -8
12 -32 -2 -25 -8 -34 -25 -36 -15 -2 -23 -10 -23 -23 0 -31 -18 -58 -53 -79
l-32 -20 46 0 c105 0 136 10 164 51 23 35 25 48 25 144 l0 105 -52 -1 c-29 0
-59 -3 -65 -6z"/>
<path d="M14740 5971 c0 -33 4 -61 10 -63 6 -2 7 -57 3 -145 -5 -113 -9 -140
-19 -136 -11 4 -14 -8 -14 -54 l0 -59 70 -52 c38 -28 72 -52 75 -52 10 0 5
116 -6 127 -7 7 -8 55 -3 147 6 109 10 136 20 132 11 -4 14 8 14 54 l0 60 -67
49 c-38 28 -71 50 -75 51 -5 0 -8 -27 -8 -59z"/>
<path d="M13673 5894 c-23 -23 -25 -30 -18 -72 4 -26 6 -63 5 -82 -3 -41 -4
-213 -3 -390 0 -69 0 -168 0 -220 -1 -88 1 -100 32 -163 43 -86 40 -137 -9
-194 -18 -20 -44 -61 -57 -89 -19 -42 -30 -54 -54 -59 -23 -5 -35 -18 -55 -60
-45 -92 -7 -116 64 -41 23 24 42 48 42 53 0 5 12 20 26 34 14 13 45 51 67 84
l41 59 12 -30 c7 -16 18 -59 25 -94 18 -94 21 -95 90 -58 33 17 58 36 56 42
-2 5 -18 14 -35 18 -43 12 -78 74 -86 157 -6 59 -4 64 19 83 34 27 48 81 41
159 -12 121 -11 133 13 166 15 20 26 51 29 82 l4 50 87 -43 c47 -24 101 -47
119 -51 32 -7 45 -25 17 -25 -8 0 -15 -5 -15 -11 0 -7 10 -9 28 -4 39 10 82 7
98 -6 13 -11 34 -5 34 11 0 4 -12 11 -26 14 -15 4 -53 25 -85 47 -32 21 -60
39 -63 39 -18 0 -144 67 -157 84 -12 14 -33 22 -70 26 l-54 5 3 48 c4 57 -19
103 -46 91 -9 -3 -25 -6 -34 -6 -10 0 -21 -4 -24 -10 -5 -8 -1 -9 10 -5 14 6
16 3 10 -16 -9 -30 -14 -34 -24 -17 -10 17 -18 82 -20 165 -1 33 -2 71 -3 85
-2 20 3 25 25 26 45 4 67 22 74 60 14 74 -77 114 -133 58z"/>
<path d="M14918 5845 c-2 -32 2 -61 8 -68 14 -15 0 -277 -16 -287 -5 -3 -13
-28 -17 -55 l-6 -49 74 -68 74 -67 5 52 c3 33 1 58 -7 67 -8 11 -10 31 -5 65
7 49 7 49 46 -110 l39 -160 61 -74 61 -74 7 49 c4 29 3 61 -4 79 -14 40 2 281
18 278 7 -1 15 20 19 52 l6 55 -72 85 c-60 71 -75 83 -80 68 -11 -27 -10 -101
1 -108 6 -3 10 -32 9 -63 -1 -74 -8 -57 -55 128 -39 153 -47 168 -126 231
l-36 29 -4 -55z"/>
<path d="M12764 5728 c-33 -35 -85 -92 -116 -129 l-57 -65 6 -56 c4 -39 9 -55
18 -52 16 7 33 -269 18 -289 -6 -6 -7 -36 -4 -65 l6 -54 73 85 72 86 -6 55
c-4 31 -10 53 -14 51 -9 -5 -20 19 -20 42 0 9 25 44 56 79 75 86 104 159 104
263 0 71 -2 82 -22 95 -36 26 -52 19 -114 -46z"/>
<path d="M13805 5693 c-58 -7 -75 -14 -75 -28 0 -12 6 -14 28 -8 15 5 81 8
147 8 93 -1 138 -6 199 -23 152 -43 286 -130 392 -254 65 -76 140 -234 160
-338 20 -100 15 -261 -11 -355 -21 -78 -74 -188 -120 -247 l-36 -48 -70 0 -71
0 51 56 c49 56 121 178 121 206 0 8 7 28 15 44 40 82 42 256 3 383 -22 74 -80
184 -109 209 -10 9 -19 22 -19 28 0 14 -71 80 -130 120 -51 35 -130 77 -135
72 -8 -8 13 -26 69 -58 78 -44 176 -127 176 -148 0 -10 -18 -36 -41 -57 -22
-22 -45 -50 -50 -62 -5 -13 -17 -23 -27 -23 -11 0 -42 -24 -71 -54 -105 -112
-37 -65 117 79 73 69 95 85 106 76 22 -19 85 -152 101 -216 18 -69 20 -222 4
-295 -16 -77 -41 -85 -241 -84 -167 2 -210 -9 -81 -20 107 -9 191 -7 242 5 24
5 46 8 48 5 11 -10 -73 -149 -124 -205 l-55 -61 -114 0 c-83 0 -114 -3 -114
-12 0 -8 -6 -6 -17 4 -15 16 -15 21 7 70 23 55 48 209 54 339 2 43 6 82 10 87
3 6 0 28 -7 50 -17 48 -13 77 18 144 33 71 33 96 -2 100 -20 2 -28 9 -28 22 0
11 -7 21 -15 24 -8 3 -44 18 -79 34 -34 16 -65 27 -67 25 -3 -2 -1 -13 3 -25
5 -11 5 -58 1 -104 -5 -46 -8 -94 -9 -108 0 -14 -8 -33 -16 -42 -19 -21 -46
-159 -34 -171 12 -12 4 -33 -24 -72 -32 -44 -36 -71 -14 -98 l19 -22 19 25
c11 14 23 36 26 50 10 37 35 60 66 60 49 0 70 -71 55 -185 -12 -94 -35 -168
-59 -187 -19 -14 -20 -19 -9 -43 7 -15 10 -35 7 -45 -6 -20 18 -50 40 -50 10
0 15 16 17 51 l3 50 460 -1 c253 0 463 -4 467 -8 4 -4 32 -61 62 -127 l54
-120 -585 -3 c-321 -1 -844 -1 -1162 0 l-578 3 66 125 66 125 533 3 c464 2
532 4 532 17 0 12 -20 15 -120 15 l-120 0 0 40 c0 44 21 104 46 131 19 21 10
40 -35 83 -39 38 -40 25 -1 -23 l29 -38 -23 -34 c-25 -36 -48 -123 -39 -146 4
-10 -17 -13 -109 -13 l-114 0 -37 38 c-20 21 -37 43 -37 50 0 6 17 20 38 31
38 19 73 51 56 51 -5 0 -29 -11 -53 -25 -23 -14 -51 -25 -61 -25 -34 0 -130
227 -130 307 l0 23 38 -24 c85 -54 168 -58 249 -10 25 14 46 24 47 22 2 -1 13
-22 26 -45 13 -23 27 -40 32 -37 4 3 -4 25 -18 50 l-26 44 40 47 c51 59 45 76
-7 20 -22 -23 -42 -39 -46 -35 -13 13 -53 146 -65 217 -15 91 -7 203 21 290
17 50 28 67 55 83 19 11 34 24 34 29 0 14 -15 11 -51 -13 -19 -13 -47 -30 -62
-38 -52 -26 -155 -137 -200 -215 -114 -195 -120 -444 -16 -645 34 -67 52 -90
68 -90 7 0 10 -4 6 -10 -3 -5 11 -27 31 -50 l36 -40 -71 0 -71 0 -31 43 c-45
61 -94 161 -121 247 -20 65 -23 95 -22 215 0 124 4 149 27 220 38 113 98 215
175 297 71 75 182 155 257 184 25 9 45 23 45 30 0 20 -12 18 -85 -17 -169 -80
-334 -253 -395 -416 -47 -125 -55 -173 -54 -313 1 -119 4 -145 29 -220 30 -94
70 -177 110 -230 l26 -35 -194 -3 -193 -2 -85 -158 c-46 -86 -84 -159 -84
-162 0 -3 45 -47 99 -98 l99 -92 1026 0 1026 1 98 93 97 92 -77 162 -77 162
-238 0 -239 0 29 43 c185 269 188 629 7 901 -161 243 -471 385 -760 349z
m-282 -314 c-12 -33 -17 -77 -17 -174 0 -125 1 -135 37 -239 21 -60 36 -110
35 -111 -15 -13 -91 -45 -118 -50 -44 -8 -120 15 -165 50 -32 24 -35 30 -35
79 0 120 60 274 149 382 40 47 121 118 128 111 2 -2 -4 -24 -14 -48z"/>
<path d="M14070 5594 c13 -33 13 -37 -1 -28 -7 4 -2 -6 10 -22 12 -16 26 -56
31 -89 12 -75 12 -78 -1 -70 -19 12 -59 -4 -59 -24 0 -14 17 -27 57 -46 32
-14 66 -34 77 -43 18 -16 19 -16 12 8 -4 14 -11 48 -16 75 -13 69 -77 247 -92
257 -23 14 -28 9 -18 -18z"/>
<path d="M14319 4240 c10 -53 19 -80 28 -80 10 0 12 10 8 38 l-5 37 13 -35 c9
-22 21 -36 34 -38 18 -3 20 2 17 50 l-4 53 13 -50 c8 -32 18 -51 29 -53 14 -3
14 5 -4 77 -18 70 -23 81 -42 81 -19 0 -21 -5 -19 -57 l3 -58 -21 58 c-17 46
-25 57 -43 57 l-23 0 16 -80z"/>
<path d="M14733 4241 c16 -63 24 -81 38 -81 12 0 16 6 12 20 -7 25 14 26 22 1
5 -15 16 -19 60 -20 57 0 72 13 33 28 -16 6 -31 29 -47 70 -13 34 -30 61 -38
61 -18 0 -17 -9 12 -75 39 -86 24 -89 -21 -4 -32 59 -45 75 -66 77 l-26 3 21
-80z"/>
<path d="M13173 3818 c-33 -20 -33 -20 -33 -102 0 -82 0 -82 38 -118 23 -23
69 -50 122 -71 l85 -34 38 19 c33 16 37 22 37 57 0 39 0 39 -50 50 -68 15 -70
14 -70 -9 0 -22 -16 -25 -54 -10 -25 9 -26 13 -26 90 l0 81 38 -3 c32 -3 37
-7 40 -29 3 -22 9 -28 40 -33 76 -12 82 -10 82 33 0 32 -6 44 -35 70 -35 30
-39 31 -128 30 -74 0 -98 -5 -124 -21z"/>
<path d="M13591 3783 c2 -48 -4 -73 -35 -145 -22 -50 -44 -88 -52 -88 -10 0
-14 -13 -14 -44 l0 -43 63 -12 c34 -7 70 -15 81 -18 17 -5 18 0 14 51 l-5 56
38 0 c62 0 66 -4 61 -65 -4 -55 -4 -55 24 -55 16 0 53 -3 82 -6 l52 -7 0 52
c0 36 -4 51 -14 51 -8 0 -29 43 -53 108 -34 91 -40 115 -36 165 l5 57 -107 0
-106 0 2 -57z"/>
<path d="M13920 3790 c0 -38 4 -50 15 -50 12 0 15 -19 15 -115 0 -96 -3 -115
-15 -115 -11 0 -15 -12 -15 -50 l0 -50 58 0 c93 0 102 5 102 56 0 24 -4 44
-10 44 -5 0 -10 24 -10 53 l0 52 43 -67 c23 -38 44 -68 47 -68 3 0 23 33 45
73 l40 72 3 -45 c2 -31 -1 -48 -12 -56 -10 -7 -16 -27 -16 -54 0 -39 2 -42 23
-37 12 3 50 11 85 18 l62 12 0 43 c0 32 -4 44 -15 44 -12 0 -15 18 -15 100 0
82 3 100 15 100 11 0 15 12 15 45 l0 45 -68 0 -67 0 -49 -81 -49 -82 -46 81
-46 81 -67 1 -68 0 0 -50z"/>
<path d="M14410 3800 c0 -22 5 -40 10 -40 14 0 13 -197 -1 -202 -6 -2 -9 -21
-7 -44 l3 -41 78 25 c76 25 77 26 77 59 0 23 -5 33 -16 33 -10 0 -14 7 -12 22
2 17 17 26 64 42 83 28 124 64 124 109 0 29 -6 38 -36 56 -31 18 -51 21 -160
21 l-124 0 0 -40z"/>
<path d="M7490 8454 c-19 -2 -91 -9 -160 -15 -1141 -98 -2225 -705 -2920
-1634 -125 -167 -179 -249 -275 -414 -237 -409 -402 -858 -489 -1331 -85 -462
-87 -980 -7 -1445 239 -1381 1165 -2553 2452 -3104 523 -223 1059 -331 1643
-331 1088 0 2132 434 2901 1205 94 93 202 208 242 255 478 570 801 1260 922
1970 45 264 55 394 55 710 0 317 -8 431 -55 705 -165 978 -713 1906 -1489
2522 -635 505 -1329 793 -2145 889 -120 14 -592 26 -675 18z m284 -449 l76
-105 0 -155 0 -155 -58 0 c-33 0 -93 -3 -135 -6 l-77 -7 0 87 c0 65 -4 93 -17
113 -16 25 -19 25 -87 19 -112 -10 -106 11 -106 -377 0 -395 -4 -379 101 -379
93 0 109 17 109 112 l0 68 -40 0 -40 0 0 140 0 140 175 0 175 0 0 -273 0 -273
-76 -104 c-41 -57 -76 -105 -77 -106 -1 -1 -42 -5 -92 -8 -49 -4 -145 -11
-212 -17 -67 -6 -127 -8 -133 -4 -6 4 -35 8 -65 9 l-55 3 1 -36 c0 -38 23
-179 30 -185 2 -3 33 2 69 9 203 42 539 45 752 6 433 -79 797 -265 1107 -566
358 -348 574 -784 632 -1278 17 -146 7 -475 -19 -612 -64 -332 -199 -642 -391
-895 l-49 -65 620 -5 621 -5 203 -420 204 -420 -93 -89 c-50 -49 -165 -158
-253 -242 l-161 -154 -2719 0 -2720 0 -234 216 c-129 119 -247 228 -262 242
l-27 27 229 420 228 420 542 3 541 2 -42 58 c-235 323 -370 656 -415 1025 -29
234 -10 548 46 768 49 192 150 431 250 594 232 378 592 682 1014 855 l89 36
18 89 c10 49 23 101 29 115 12 30 7 77 -17 154 -22 68 -21 192 2 236 22 44 72
97 109 117 l28 15 -6 341 -7 342 80 120 80 120 118 11 c65 6 166 12 225 13
l107 1 75 -105z m618 55 c95 -16 206 -37 246 -46 l73 -16 -2 -155 -1 -155 -24
5 c-14 2 -24 0 -24 -7 1 -6 45 -188 98 -405 l98 -393 33 -14 c30 -13 33 -17
27 -45 -3 -17 -6 -87 -6 -154 l0 -123 -62 20 c-35 10 -119 34 -188 52 l-125
33 -3 114 c-4 138 4 200 22 193 11 -4 12 2 7 27 -5 25 -13 35 -35 40 -50 14
-226 43 -230 38 -2 -2 -7 -16 -11 -32 -6 -21 -4 -27 9 -27 14 0 16 -19 16
-155 0 -117 -3 -155 -12 -155 -7 0 -71 7 -143 15 -71 8 -151 15 -177 15 l-48
0 0 161 0 161 30 -4 c33 -5 24 -26 106 250 14 48 52 173 85 279 32 105 59 194
59 197 0 3 -9 6 -20 6 -19 0 -20 7 -20 155 l0 155 25 0 c13 0 102 -13 197 -30z
m-1703 -405 l1 -81 -99 -32 c-54 -17 -106 -34 -115 -38 -13 -5 -16 1 -16 35 0
46 1 45 -35 31 l-27 -10 6 -93 c3 -50 9 -219 12 -374 4 -164 11 -283 16 -283
5 0 18 4 28 10 16 8 18 5 22 -33 3 -23 6 -94 7 -157 l2 -115 -48 -19 c-26 -11
-113 -48 -192 -83 -79 -35 -145 -63 -146 -61 -1 2 -5 71 -8 155 l-5 151 30 13
31 13 -6 140 c-4 78 -10 248 -13 379 -4 130 -8 237 -10 237 -2 0 -15 -5 -29
-12 -21 -9 -25 -18 -25 -54 l0 -42 -112 -61 c-61 -33 -113 -59 -114 -58 -2 2
-4 90 -6 197 l-3 195 152 76 c165 81 389 177 573 244 l115 42 6 -116 c4 -64 7
-152 8 -196z m2383 227 l179 -66 -2 -116 c-3 -157 -8 -193 -25 -186 -8 3 -14
3 -14 -1 0 -11 91 -488 94 -490 2 -2 18 47 36 109 18 61 46 150 61 197 25 74
27 86 14 94 -12 6 -15 29 -15 101 0 51 3 121 6 155 l7 61 121 -64 c67 -35 161
-87 209 -116 87 -50 89 -53 83 -83 -3 -18 -6 -83 -7 -145 -1 -62 -5 -115 -10
-117 -4 -3 -23 4 -41 15 -18 11 -36 20 -40 20 -7 0 -221 -641 -216 -645 2 -1
14 -8 27 -15 l23 -12 -7 -151 c-4 -84 -8 -153 -10 -155 -2 -2 -58 25 -126 59
-68 34 -182 88 -254 120 l-130 59 -3 156 -3 156 24 -6 24 -6 -54 273 c-29 149
-65 333 -79 408 l-26 136 -39 12 -39 12 0 155 0 156 26 -6 c15 -4 107 -37 206
-74z m-3376 -394 c1 -9 3 -74 5 -146 4 -125 3 -130 -19 -148 l-23 -19 122
-305 c67 -168 123 -306 125 -308 1 -2 16 4 33 13 l31 16 2 -93 c0 -51 2 -122
2 -157 l1 -64 -125 -76 c-69 -42 -153 -96 -187 -119 -51 -35 -63 -39 -63 -25
0 10 -3 82 -7 160 -5 123 -4 143 9 148 16 6 14 40 -3 51 -5 3 -64 -37 -131
-87 -68 -51 -124 -93 -125 -93 0 -1 -5 -19 -9 -41 -6 -36 -6 -39 9 -26 15 12
17 10 18 -15 0 -16 2 -36 4 -44 1 -8 4 -65 6 -126 l4 -110 -115 -100 c-63 -54
-145 -128 -183 -163 -37 -35 -69 -62 -71 -60 -3 2 -7 47 -10 99 -4 52 -9 120
-12 149 -6 52 -4 56 25 80 31 26 32 30 86 331 31 168 69 374 85 457 17 84 30
160 30 169 0 16 -1 16 -18 0 -18 -16 -19 -13 -25 90 -4 59 -7 130 -7 158 l0
51 111 85 c163 125 401 291 412 287 6 -2 11 -10 13 -19z m4263 -65 c36 -25
124 -89 194 -141 l128 -95 -7 -151 c-3 -83 -8 -153 -10 -155 -2 -3 -15 6 -29
19 -14 13 -26 22 -28 19 -2 -2 -12 -166 -21 -364 -10 -198 -19 -365 -21 -372
-2 -7 9 -23 25 -37 29 -24 30 -27 29 -108 -1 -46 -4 -116 -8 -156 l-6 -73
-110 86 c-60 47 -147 111 -193 143 l-82 57 6 150 c3 83 8 152 11 155 2 2 13
-1 23 -8 11 -7 22 -12 24 -12 8 0 15 78 21 225 9 232 15 376 21 452 4 72 4 72
-26 88 -27 14 -30 20 -30 64 0 76 13 261 18 261 2 0 34 -21 71 -47z m501 -390
c52 -47 124 -113 159 -147 l65 -61 62 -240 c34 -132 86 -334 115 -450 l54
-210 6 75 c19 219 19 229 -13 266 l-30 34 7 127 c12 201 0 199 151 27 280
-320 267 -302 260 -359 -3 -27 -8 -97 -12 -154 l-7 -105 -28 34 c-16 19 -30
32 -32 29 -2 -2 -14 -139 -26 -304 -12 -165 -24 -332 -28 -371 -5 -68 -4 -72
25 -105 l31 -35 -9 -120 c-5 -65 -10 -134 -10 -152 0 -19 -4 -32 -9 -30 -4 2
-52 57 -107 123 -54 66 -124 150 -156 186 l-58 67 -105 420 c-58 231 -109 431
-114 444 -6 16 -11 -22 -16 -125 l-7 -148 27 -29 28 -29 -8 -148 c-4 -81 -9
-150 -11 -152 -2 -3 -53 43 -112 100 -59 58 -145 139 -191 181 l-83 77 7 155
7 156 26 -21 c20 -15 27 -17 33 -7 3 7 9 76 13 153 9 189 16 317 26 460 l8
120 -31 26 -30 25 6 130 c4 71 7 139 7 152 0 12 3 22 8 22 4 0 50 -39 102 -87z
m-5494 -247 l41 -17 12 -207 13 -207 -73 -185 -72 -185 -141 -147 -141 -148 3
-87 c5 -126 8 -132 42 -92 l27 33 7 -104 c4 -58 9 -128 12 -155 l5 -51 -74
-84 c-40 -47 -128 -151 -194 -232 l-121 -146 -6 61 c-3 34 -9 104 -12 155 -7
93 -7 93 24 131 20 25 29 45 26 62 -2 13 -13 155 -24 314 -11 160 -23 317 -27
349 l-6 60 -27 -33 -27 -32 -6 48 c-3 26 -9 96 -13 155 l-7 107 89 103 c144
167 249 284 396 440 l139 147 47 -18 c26 -11 65 -26 88 -35z m1457 -5252 l87
-76 0 -109 c0 -128 19 -117 -165 -94 -66 8 -123 15 -127 15 -5 0 -8 26 -8 59
0 40 -5 63 -15 71 -20 17 -165 31 -187 19 -16 -9 -18 -29 -18 -203 0 -224 -7
-210 111 -248 95 -32 109 -26 109 42 0 30 4 50 11 50 6 0 74 -12 150 -27 l139
-26 0 -108 0 -107 -85 -50 -86 -50 -87 33 c-48 18 -154 60 -237 93 l-149 62
-88 92 -87 93 -1 220 0 220 88 52 87 52 235 0 235 1 88 -76z m1007 -55 l0
-131 -25 6 c-14 4 -25 4 -25 2 0 -15 235 -612 242 -617 5 -3 20 -4 34 -1 l24
4 0 -132 0 -132 -122 6 c-68 4 -162 9 -210 12 l-88 7 0 123 c0 115 1 124 19
124 14 0 18 5 14 21 -7 27 -7 27 -161 42 -124 12 -134 12 -143 -4 -12 -24 -12
-26 11 -32 19 -5 20 -14 20 -121 l0 -116 -25 0 c-20 0 -203 35 -355 68 l-35 8
-3 113 -3 114 31 -6 c28 -6 32 -3 56 46 21 40 185 410 211 475 3 8 -4 12 -21
12 l-26 0 0 113 c0 63 3 117 7 120 3 4 134 7 290 7 l283 0 0 -131z m754 -29
c152 -260 157 -267 170 -247 6 9 63 105 126 212 l115 195 172 0 173 0 0 -115
0 -115 -30 0 -30 0 0 -276 0 -277 30 7 30 6 0 -115 c0 -63 -3 -115 -6 -115 -4
0 -84 -15 -178 -34 -94 -19 -187 -37 -206 -40 l-35 -6 2 123 2 122 30 3 31 3
0 137 c0 137 0 137 -18 107 -10 -16 -63 -108 -117 -204 -116 -203 -88 -206
-226 22 -51 83 -96 156 -101 161 -4 6 -8 -52 -8 -127 l0 -137 30 0 30 0 0
-125 c0 -93 -3 -125 -12 -125 -7 0 -104 -3 -215 -7 l-203 -6 0 126 0 126 33 3
32 3 3 308 2 307 -35 0 -35 0 0 130 0 130 176 -2 177 -3 91 -155z m1594 108
l92 -53 0 -96 0 -97 -90 -79 -90 -79 -150 -38 -150 -39 0 -64 0 -65 30 7 31 7
-3 -94 -3 -93 -195 -67 c-107 -37 -203 -67 -213 -67 -16 -1 -17 9 -15 106 l3
107 33 8 32 9 0 259 0 260 -35 0 -35 0 0 110 0 110 334 0 333 0 91 -52z"/>
<path d="M7086 7118 c-22 -13 -53 -40 -70 -61 -29 -36 -31 -46 -34 -127 -3
-65 1 -103 13 -140 23 -70 22 -141 -4 -230 -20 -67 -22 -91 -17 -220 6 -155 5
-151 5 -280 0 -47 4 -107 10 -135 6 -29 9 -122 6 -220 -2 -93 1 -214 7 -268 9
-85 8 -103 -7 -140 -21 -52 -24 -179 -5 -202 11 -13 10 -18 -8 -31 -26 -18
-27 -44 -7 -169 9 -52 27 -115 44 -150 54 -114 81 -174 81 -183 0 -5 8 -20 18
-33 11 -13 22 -44 26 -69 4 -24 11 -49 16 -55 6 -7 6 -24 0 -43 -5 -18 -14
-66 -20 -106 l-11 -75 -77 -78 c-87 -88 -130 -156 -172 -268 -37 -98 -49 -111
-113 -118 -79 -10 -135 -61 -140 -128 -2 -24 -16 -51 -41 -83 -35 -42 -38 -50
-33 -92 6 -56 30 -84 72 -84 28 0 46 14 133 105 55 58 104 105 110 105 6 0 13
17 17 38 5 31 25 58 103 139 60 63 125 145 172 216 41 64 78 116 82 116 9 1
58 -130 58 -155 0 -12 9 -41 19 -65 11 -24 26 -93 35 -152 16 -107 35 -164 60
-173 16 -6 221 90 273 129 23 18 43 40 43 50 0 25 -58 57 -106 57 -49 0 -70
20 -141 136 -46 75 -50 87 -57 165 -3 46 -15 124 -26 173 -11 50 -20 93 -20
96 0 4 21 18 48 33 26 14 58 37 70 50 59 63 107 316 82 440 -6 34 -22 89 -35
122 -34 87 -36 114 -14 144 11 15 21 36 24 49 2 12 20 41 39 63 57 68 81 146
81 271 l0 107 30 -18 c82 -49 149 -83 235 -121 52 -23 102 -47 110 -54 25 -21
131 -60 195 -71 54 -10 60 -13 60 -35 0 -20 -6 -26 -30 -30 -22 -4 -30 -11
-30 -25 0 -32 62 -32 123 -1 47 24 53 24 79 11 15 -8 45 -15 67 -15 26 0 47
-8 68 -25 33 -28 54 -28 52 -1 -1 9 4 16 12 16 8 0 14 6 14 14 0 14 -28 28
-95 46 -44 12 -90 39 -249 147 -59 39 -139 84 -179 98 -39 15 -112 47 -162 71
-49 23 -107 50 -127 58 -21 8 -38 21 -38 29 0 15 -55 69 -88 86 -12 7 -78 17
-145 23 -67 6 -125 16 -129 22 -14 21 -8 67 13 96 14 19 19 35 14 47 -4 10 -9
36 -11 58 -9 115 -34 155 -94 155 -49 0 -99 -41 -124 -102 -10 -24 -23 -53
-29 -66 l-11 -23 -18 23 c-10 13 -18 32 -18 43 0 11 -11 60 -24 108 -18 67
-21 98 -15 130 13 68 9 215 -10 327 -24 141 -20 148 69 146 61 -1 73 2 111 29
63 44 84 86 84 167 0 76 -15 104 -84 153 -34 24 -54 30 -109 33 -55 2 -74 -1
-106 -20z"/>
<path d="M7340 6454 c-47 -7 -103 -17 -125 -21 l-40 -9 -7 -79 c-4 -43 -10
-85 -12 -92 -3 -7 -1 -25 5 -41 l9 -28 113 24 c141 29 397 40 542 23 57 -7
101 -8 103 -3 12 36 30 45 95 45 60 0 66 2 69 21 5 35 59 34 111 -4 36 -25 47
-42 67 -101 l25 -71 112 -53 c123 -59 247 -136 357 -223 101 -80 243 -229 256
-268 6 -18 20 -36 31 -39 27 -9 117 -148 194 -300 107 -209 168 -436 184 -677
16 -244 -26 -558 -88 -664 -12 -19 -21 -48 -21 -64 0 -39 -65 -187 -134 -303
-71 -121 -152 -229 -256 -340 l-82 -87 161 0 160 0 66 84 c216 278 355 600
411 956 23 148 23 449 0 599 -66 425 -265 824 -563 1125 -316 320 -720 525
-1164 590 -131 20 -457 20 -579 0z"/>
<path d="M6810 6302 c-227 -103 -420 -233 -593 -401 -340 -329 -550 -752 -608
-1223 -17 -146 -7 -474 20 -616 59 -310 222 -664 415 -899 l51 -63 165 0 c153
0 163 1 142 16 -39 27 -172 185 -172 205 0 9 -14 28 -31 40 -58 41 -171 234
-245 417 -84 207 -120 398 -115 597 0 11 -2 59 -5 106 -10 142 29 362 97 556
88 248 219 462 398 647 102 105 268 241 331 270 25 12 64 35 87 52 23 17 76
46 118 65 68 31 76 38 85 70 6 23 6 47 0 69 -6 19 -10 59 -10 87 0 36 -4 53
-12 53 -7 -1 -60 -22 -118 -48z"/>
<path d="M8120 6284 c0 -5 12 -39 26 -77 25 -66 26 -93 2 -69 -14 14 -28 16
-28 3 0 -5 24 -39 54 -75 50 -61 54 -70 60 -133 4 -38 14 -114 23 -171 8 -56
13 -105 10 -109 -4 -3 -13 0 -22 7 -22 18 -114 4 -142 -22 -27 -26 -30 -56 -5
-64 75 -24 202 -95 315 -176 31 -22 60 -39 62 -36 3 3 1 18 -5 34 -17 44 -50
212 -50 253 0 21 -21 93 -48 162 -27 68 -59 156 -72 194 -62 188 -75 222 -97
243 -13 12 -28 22 -33 22 -4 0 -11 6 -13 13 -4 9 -6 8 -6 -2 -1 -11 -4 -11
-16 -1 -8 7 -15 9 -15 4z"/>
<path d="M8001 6213 l-20 -38 -1 33 c0 57 -18 25 -41 -76 -14 -60 -44 -145
-81 -224 -32 -70 -58 -135 -58 -145 1 -25 50 -80 82 -92 25 -9 26 -9 47 67 12
42 28 112 36 154 16 87 50 147 104 184 l36 24 -33 0 c-17 0 -32 2 -32 5 0 3
16 29 35 58 42 63 45 85 5 38 l-30 -35 10 34 c12 42 12 40 1 40 -5 0 -16 -17
-25 -37 l-16 -38 6 43 c3 23 3 42 0 42 -3 0 -14 -17 -25 -37z"/>
<path d="M7461 6193 l-33 -4 23 -25 c21 -23 27 -24 99 -18 42 4 117 3 166 -1
l89 -7 -48 -19 c-103 -41 -196 -119 -259 -218 -33 -53 -35 -71 -9 -71 12 0 29
16 44 43 36 60 145 160 209 190 29 14 78 32 109 41 48 14 58 21 62 44 3 15 5
28 4 29 -1 1 -46 6 -99 12 -93 11 -285 12 -357 4z"/>
<path d="M6856 6020 c-43 -22 -91 -51 -106 -65 -14 -14 -33 -25 -41 -25 -35 0
-192 -123 -320 -250 -103 -102 -154 -163 -212 -250 -163 -248 -253 -480 -291
-759 -20 -139 -20 -222 -2 -266 13 -29 13 -39 1 -62 -27 -55 25 -326 101 -532
70 -187 194 -395 252 -420 25 -12 32 -21 32 -43 0 -32 86 -138 168 -206 38
-32 58 -42 86 -42 l36 0 -111 107 c-61 59 -115 115 -120 125 -17 31 6 54 107
108 90 49 153 100 154 127 0 6 -55 -20 -122 -58 -124 -70 -170 -86 -207 -74
-46 14 -196 293 -256 480 -38 115 -78 324 -73 375 3 34 -5 37 129 -48 50 -31
118 -63 167 -79 74 -23 94 -25 195 -21 130 6 201 29 321 108 l72 47 59 -105
c80 -140 81 -142 100 -118 13 17 12 22 -4 45 -23 33 -111 191 -111 200 0 4 39
48 88 98 103 107 123 138 111 172 -9 22 -11 20 -53 -35 -24 -33 -73 -88 -108
-122 l-65 -64 -46 109 c-176 417 -210 856 -96 1228 55 177 94 230 203 275 56
24 61 30 48 62 -6 15 -16 12 -86 -22z m-192 -253 c-52 -150 -74 -272 -81 -442
-7 -190 8 -346 53 -526 34 -140 98 -327 140 -411 l24 -47 -58 -39 c-162 -110
-316 -145 -467 -107 -133 34 -298 141 -338 218 -19 36 -19 46 -8 165 46 501
291 943 685 1233 44 33 81 58 82 56 1 -1 -13 -46 -32 -100z"/>
<path d="M8321 6031 c9 -25 29 -40 107 -81 141 -74 271 -170 401 -296 106
-103 113 -113 107 -140 -5 -18 -51 -74 -127 -149 -65 -66 -119 -125 -119 -131
0 -44 -59 -98 -88 -80 -6 3 -42 -24 -81 -61 -51 -50 -72 -77 -77 -103 -6 -34
-5 -33 97 60 57 52 175 163 262 246 87 84 167 154 178 157 25 7 46 -21 136
-178 74 -130 118 -234 156 -366 77 -265 87 -577 26 -839 -34 -147 -37 -152
-149 -188 -143 -46 -291 -58 -545 -43 -104 6 -214 14 -242 18 -49 5 -53 4 -53
-15 0 -11 8 -23 18 -26 9 -3 95 -10 190 -17 208 -14 471 -7 562 16 88 22 150
29 150 17 0 -5 -34 -76 -75 -158 -92 -184 -192 -320 -344 -466 l-111 -108 40
0 c35 0 47 7 111 67 91 86 211 235 278 346 80 132 145 276 146 322 1 25 11 55
27 80 49 76 88 308 88 528 0 310 -77 597 -232 866 -85 148 -115 190 -142 197
-17 4 -26 15 -30 39 -11 57 -206 244 -371 355 -76 51 -244 143 -282 155 -21 6
-22 4 -12 -24z"/>
<path d="M7841 5421 c5 -22 18 -65 30 -96 20 -53 20 -63 9 -136 -8 -49 -10
-106 -5 -151 11 -110 11 -109 -18 -165 -31 -61 -33 -84 -10 -119 16 -26 16
-26 -25 -66 -23 -22 -42 -47 -42 -57 0 -9 -7 -26 -15 -38 -8 -11 -14 -36 -14
-54 1 -19 -8 -72 -20 -118 -31 -129 -37 -194 -17 -210 33 -27 15 -91 -44 -162
-54 -65 -75 -104 -96 -177 -16 -61 -16 -64 2 -82 11 -10 42 -20 76 -24 l58 -6
24 37 c14 21 34 67 46 103 11 36 36 87 56 114 35 47 36 48 79 42 29 -5 55 -2
80 8 35 15 36 15 45 -10 6 -14 10 -32 10 -40 0 -20 18 -54 42 -80 13 -15 22
-47 29 -111 9 -83 8 -101 -16 -201 -14 -61 -25 -138 -25 -171 0 -42 -12 -102
-40 -193 -40 -136 -42 -139 -118 -200 -28 -23 -28 -44 3 -103 22 -41 25 -55
19 -106 -6 -50 -4 -63 12 -80 24 -26 67 -49 92 -49 38 0 46 25 43 138 l-2 107
38 33 38 32 -27 21 c-16 11 -28 27 -28 35 0 8 25 75 55 148 74 182 84 222 100
437 11 141 20 200 36 240 19 50 20 61 10 142 -10 75 -9 99 6 170 27 126 24
229 -8 298 -41 86 -32 145 51 334 58 133 58 132 65 223 3 40 10 85 16 98 18
48 -11 57 -74 24 -48 -26 -118 -27 -140 -2 -21 23 -22 56 -2 72 24 20 19 24
-37 38 -29 7 -111 41 -183 76 -71 35 -140 67 -152 70 -20 6 -21 5 -12 -33z"/>
<path d="M7135 3839 c-8 -23 0 -33 99 -136 58 -61 59 -62 42 -85 -97 -133
-130 -213 -147 -352 -14 -111 -7 -166 21 -166 18 0 20 7 20 88 0 147 40 270
119 369 55 70 53 90 -12 161 -29 31 -68 76 -86 100 -39 48 -47 51 -56 21z"/>
<path d="M7556 3530 c-27 -11 -61 -31 -76 -45 -14 -14 -31 -25 -37 -25 -19 0
-43 -42 -43 -76 0 -18 -13 -65 -30 -105 -36 -90 -38 -128 -7 -157 47 -45 105
-14 133 71 23 70 48 118 73 141 17 15 21 31 21 76 0 32 7 76 15 99 8 22 11 41
7 41 -4 -1 -29 -10 -56 -20z"/>
<path d="M7620 3383 c0 -24 12 -36 88 -85 109 -72 243 -148 259 -148 6 0 13 8
15 18 3 12 -15 27 -67 55 -38 22 -115 69 -170 105 -55 37 -106 71 -112 75 -9
6 -13 0 -13 -20z"/>
<path d="M4908 2897 c-32 -61 -110 -212 -173 -334 l-116 -223 3066 0 c1686 0
3065 4 3065 8 0 4 -67 154 -148 332 l-148 325 -1133 3 -1132 2 -35 -26 -34
-26 1 -97 c0 -53 6 -161 13 -241 7 -80 10 -149 6 -153 -4 -5 -31 -7 -61 -5
l-54 3 -31 121 c-17 66 -34 127 -38 135 -3 8 -4 -48 -1 -123 l6 -138 -36 0
c-20 0 -37 6 -40 13 -2 6 -6 103 -10 215 l-6 202 26 0 c29 0 30 3 10 38 -8 15
-19 39 -25 55 l-10 27 -1452 0 -1453 0 -57 -113z m337 -23 c18 -18 15 -35 -22
-107 -13 -26 -37 -56 -54 -66 -23 -14 -27 -20 -15 -24 24 -9 19 -37 -16 -107
-46 -90 -68 -103 -179 -108 -60 -3 -90 -1 -88 6 2 5 49 102 104 216 l100 206
77 0 c57 0 81 -4 93 -16z m241 -1 c-16 -55 -96 -335 -106 -370 -11 -42 -11
-43 -55 -43 -25 0 -45 2 -45 4 0 2 7 23 15 46 20 56 19 60 -8 60 -17 0 -30
-13 -52 -55 -29 -53 -31 -55 -73 -55 -24 0 -41 3 -39 8 2 4 57 100 122 215
l117 207 65 0 c57 0 64 -2 59 -17z m248 11 c20 -8 20 -44 2 -89 -13 -31 -19
-35 -50 -35 -34 0 -35 1 -26 25 8 20 6 27 -6 32 -21 8 -34 -7 -41 -50 -5 -34
-3 -37 31 -51 20 -8 39 -23 43 -32 9 -25 -37 -154 -68 -188 -23 -26 -35 -30
-93 -34 -98 -6 -116 18 -76 106 17 38 22 42 55 42 37 0 42 -8 24 -42 -8 -16
-8 -22 2 -28 19 -13 37 -1 48 32 18 52 14 64 -29 81 -32 12 -40 21 -40 40 0
39 41 135 71 168 24 25 34 29 82 29 31 0 62 -3 71 -6z m140 -66 c-13 -39 -22
-73 -20 -75 2 -2 23 28 46 68 47 77 53 82 99 77 l30 -3 -65 -100 -66 -100 7
-112 6 -113 -45 0 -45 0 -3 93 -3 92 -31 -90 -31 -90 -41 -3 c-23 -2 -42 -1
-42 1 0 4 103 298 145 415 2 7 21 12 44 12 l40 0 -25 -72z m336 58 c0 -8 -4
-26 -10 -40 -8 -21 -16 -26 -44 -26 -32 0 -36 -3 -45 -37 -15 -53 -15 -53 20
-53 29 0 30 -1 24 -32 -10 -46 -12 -48 -50 -48 -32 0 -35 -3 -47 -47 l-14 -48
38 -3 c41 -3 45 -12 28 -56 -9 -25 -13 -26 -90 -26 -61 0 -80 3 -80 14 0 7 27
102 60 211 33 109 60 199 60 201 0 2 34 4 75 4 58 0 75 -3 75 -14z m208 -26
c-9 -34 -14 -40 -38 -40 -27 0 -28 -2 -71 -172 l-44 -173 -42 -3 c-24 -2 -43
0 -43 3 0 6 75 292 86 328 4 13 0 17 -20 17 -28 0 -32 13 -16 54 9 25 12 26
104 26 l94 0 -10 -40z m213 19 c17 -17 20 -28 14 -57 -11 -66 -26 -102 -47
-113 -19 -10 -19 -12 -3 -30 14 -15 16 -29 11 -70 -12 -86 -29 -116 -73 -128
-55 -16 -173 -14 -173 2 0 6 21 103 47 215 l47 202 78 0 c66 0 81 -3 99 -21z
m236 -86 c-4 -58 -7 -155 -7 -215 l0 -108 -46 0 -47 0 6 55 c6 55 5 55 -22 55
-25 0 -29 -5 -42 -52 -14 -53 -14 -53 -57 -56 -23 -2 -42 0 -42 4 0 7 60 202
116 377 l16 47 65 0 66 0 -6 -107z m163 90 c0 -10 -9 -88 -20 -173 -11 -85
-20 -156 -20 -157 0 -2 18 -3 40 -3 42 0 47 -8 34 -57 -6 -22 -12 -23 -90 -23
-82 0 -84 1 -79 23 5 25 55 381 55 397 0 5 18 10 40 10 31 0 40 -4 40 -17z
m173 -120 c-6 -76 -14 -155 -17 -175 l-4 -38 39 0 c39 0 39 0 39 -40 l0 -40
-86 0 -87 0 6 43 c3 23 13 120 23 215 l18 172 41 0 40 0 -12 -137z m383 115
c-3 -13 -6 -31 -6 -40 0 -14 -8 -18 -35 -18 l-35 0 0 -50 c0 -49 1 -50 29 -50
36 0 44 -11 36 -50 -5 -25 -12 -30 -36 -30 -20 0 -30 -5 -31 -17 -1 -10 -2
-25 -4 -33 -1 -8 -2 -39 -3 -67 l-1 -53 -46 0 -46 0 5 33 c3 17 9 111 13 207
3 96 8 178 11 183 2 4 38 7 80 7 73 0 75 -1 69 -22z m116 -150 c3 -165 4 -173
23 -173 19 0 20 6 17 173 l-2 172 39 0 39 0 4 -57 c2 -32 4 -120 3 -196 0
-134 -1 -139 -24 -158 -17 -14 -39 -19 -81 -19 -51 0 -61 3 -79 26 -20 25 -21
40 -21 215 l0 189 40 0 40 0 2 -172z m627 157 c38 -19 48 -53 68 -216 15 -126
16 -139 1 -161 -19 -28 -54 -38 -138 -38 l-58 0 -6 48 c-3 26 -10 106 -16 177
-6 72 -13 147 -15 168 l-5 37 70 0 c43 0 82 -6 99 -15z m260 -30 c6 -25 34
-119 61 -210 28 -90 50 -166 50 -169 0 -4 -20 -6 -44 -6 l-45 0 -12 55 c-11
50 -15 55 -40 55 -27 0 -27 0 -22 -55 l5 -55 -46 0 -46 0 0 215 0 215 64 0 64
0 11 -45z m231 -82 c68 -199 72 -206 65 -98 -3 50 -8 120 -11 158 l-6 67 59 0
59 0 48 -202 c27 -112 51 -209 53 -215 4 -9 -7 -13 -36 -13 -46 0 -39 -15 -85
190 l-25 115 5 -110 c3 -60 8 -129 10 -152 l6 -43 -50 0 -50 0 -40 113 c-22
61 -45 131 -52 155 -25 81 -20 34 10 -108 16 -79 30 -147 30 -152 0 -5 -17 -8
-37 -6 l-37 3 -32 180 c-18 99 -35 195 -39 213 l-6 32 59 0 59 0 43 -127z
m374 103 c3 -13 9 -31 12 -40 5 -13 -1 -16 -31 -16 -30 0 -35 -3 -31 -17 3
-10 8 -30 12 -45 5 -24 11 -28 39 -28 38 0 40 -2 49 -47 7 -30 6 -32 -27 -35
l-34 -3 14 -47 c13 -47 15 -48 53 -48 43 0 45 -1 55 -47 l7 -33 -85 0 -85 0
-51 205 c-28 112 -51 209 -51 215 0 6 30 10 74 10 70 0 74 -1 80 -24z m226
-126 c41 -82 75 -148 77 -146 1 1 -19 68 -46 149 l-50 147 37 0 37 0 68 -203
c37 -111 67 -208 67 -215 0 -9 -16 -12 -57 -10 l-58 3 -77 150 c-42 83 -77
148 -78 145 0 -3 20 -69 45 -145 24 -77 45 -143 45 -147 0 -11 -68 -10 -75 1
-3 5 -30 95 -60 199 -30 104 -57 197 -61 206 -5 14 2 16 53 16 l59 0 74 -150z
m285 114 c19 -46 19 -44 -10 -44 -14 0 -25 -3 -25 -6 0 -3 27 -80 60 -170 33
-90 60 -166 60 -169 0 -4 -19 -5 -42 -3 l-43 3 -60 172 c-58 166 -61 172 -89
175 -24 2 -32 10 -42 41 l-13 37 94 0 95 0 15 -36z m196 -26 c17 -34 67 -127
110 -206 44 -79 79 -148 79 -153 0 -5 -18 -9 -40 -9 -39 0 -41 2 -67 55 -22
44 -32 55 -51 55 -20 0 -23 -4 -19 -22 3 -13 8 -38 12 -56 l8 -33 -43 3 -43 3
-54 210 c-29 116 -53 211 -53 213 0 1 29 2 65 2 l65 0 31 -62z m209 -115 l75
-173 41 0 c36 0 42 -3 57 -35 9 -20 17 -38 17 -40 0 -3 -38 -5 -84 -5 l-84 0
-25 63 c-14 34 -55 131 -91 215 l-65 153 42 -3 42 -3 75 -172z m191 166 c19
-10 79 -94 79 -111 0 -4 -16 -8 -35 -8 -28 0 -37 5 -50 30 -17 33 -45 40 -45
11 0 -32 37 -68 86 -81 65 -19 102 -53 140 -134 38 -78 41 -98 19 -116 -23
-19 -139 -9 -166 15 -18 17 -69 104 -69 120 0 3 16 5 35 5 30 0 39 -6 56 -34
39 -67 75 -52 37 16 -19 35 -31 44 -68 55 -25 7 -55 18 -68 25 -47 25 -115
175 -92 203 15 18 111 21 141 4z"/>
<path d="M4635 6305 c-65 -72 -65 -72 -64 -131 1 -33 4 -85 8 -118 l6 -58 67
74 c85 96 97 123 90 220 -6 107 -22 109 -107 13z"/>
<path d="M9455 1421 l-60 -6 -3 -73 -3 -74 28 6 c15 3 48 8 73 12 61 9 80 27
80 80 0 33 -5 46 -19 54 -11 5 -23 9 -28 8 -4 -1 -35 -4 -68 -7z"/>
</g>
</svg>
