<?xml version="1.0" standalone="no"?>
<!DOCTYPE svg PUBLIC "-//W3C//DTD SVG 20010904//EN"
 "http://www.w3.org/TR/2001/REC-SVG-20010904/DTD/svg10.dtd">
<svg version="1.0" xmlns="http://www.w3.org/2000/svg"
 width="3500.000000pt" height="3456.000000pt" viewBox="0 0 3500.000000 3456.000000"
 preserveAspectRatio="xMidYMid meet">
<metadata>
Created by potrace 1.15, written by Peter Selinger 2001-2017
</metadata>
<g transform="translate(0.000000,3456.000000) scale(0.100000,-0.100000)"
fill="#000000" stroke="none">
<path d="M15275 28565 c-44 -7 -91 -16 -105 -20 -14 -3 -29 -7 -35 -9 -197
-48 -428 -253 -514 -456 -13 -30 -30 -71 -38 -90 -9 -19 -18 -51 -22 -70 -8
-49 -7 -390 1 -480 10 -96 9 -95 53 -225 20 -60 38 -117 40 -126 2 -9 8 -25
13 -35 32 -62 39 -113 48 -350 3 -92 1 -107 -27 -180 -63 -168 -80 -225 -104
-351 -3 -16 -8 -41 -12 -58 -3 -16 -7 -37 -9 -45 -7 -46 -14 -91 -19 -135 -10
-86 -17 -139 -21 -165 -6 -39 -5 -632 1 -662 7 -39 13 -82 21 -158 3 -36 13
-81 22 -100 17 -40 27 -232 13 -259 -11 -20 -52 -263 -53 -316 -1 -22 1 -51 5
-65 25 -104 27 -113 32 -145 3 -16 7 -66 10 -110 6 -77 13 -148 20 -190 2 -11
6 -37 10 -59 3 -21 7 -41 10 -45 14 -23 28 -403 29 -766 0 -254 -1 -285 -19
-335 -15 -42 -20 -81 -20 -165 0 -103 10 -277 20 -355 3 -19 7 -64 10 -100 3
-36 8 -81 10 -101 3 -20 7 -60 10 -90 13 -135 17 -172 21 -192 2 -12 7 -58 10
-101 3 -44 8 -84 10 -88 3 -5 -7 -32 -22 -61 -23 -44 -90 -225 -92 -250 0 -8
-13 -82 -18 -112 -17 -87 -21 -257 -10 -363 9 -93 28 -153 61 -204 42 -64 41
-73 -21 -114 -111 -74 -140 -156 -109 -304 3 -14 8 -41 11 -60 3 -19 10 -55
16 -80 6 -25 12 -54 13 -65 5 -30 15 -87 20 -115 6 -30 13 -76 20 -145 3 -27
8 -60 11 -73 2 -12 7 -44 10 -70 6 -54 53 -198 94 -289 24 -53 102 -194 162
-293 9 -15 26 -63 38 -106 28 -98 44 -133 97 -211 24 -34 43 -74 43 -88 0 -29
42 -160 66 -207 8 -16 40 -56 70 -89 44 -48 54 -66 56 -96 2 -67 15 -174 24
-205 3 -10 7 -28 9 -40 12 -64 33 -114 51 -123 25 -13 24 -28 -9 -160 -9 -33
-19 -78 -22 -100 -4 -22 -9 -53 -11 -70 -3 -16 -10 -48 -16 -70 -5 -22 -12
-53 -15 -70 -2 -16 -6 -39 -8 -50 -2 -11 -6 -42 -10 -70 -3 -27 -10 -76 -16
-107 -5 -31 -9 -72 -8 -90 1 -18 -6 -58 -16 -89 -14 -46 -24 -59 -54 -75 -35
-18 -193 -161 -371 -336 -163 -158 -440 -620 -542 -903 -43 -118 -55 -152 -80
-222 -48 -137 -64 -170 -108 -216 -52 -55 -88 -77 -139 -84 -20 -2 -46 -6 -58
-9 -59 -11 -71 -13 -118 -18 -27 -4 -57 -8 -65 -10 -8 -1 -33 -6 -55 -11 -22
-4 -76 -25 -120 -46 -102 -48 -185 -131 -244 -243 -50 -96 -53 -106 -57 -228
-1 -53 -8 -107 -15 -120 -7 -13 -54 -71 -105 -129 -51 -59 -114 -140 -141
-180 l-48 -74 1 -85 c2 -92 5 -114 34 -216 16 -54 29 -78 67 -117 71 -73 125
-96 235 -102 54 -4 61 -1 105 34 42 33 439 445 638 661 77 84 98 100 171 135
75 37 87 54 91 133 6 144 12 157 153 324 72 87 174 194 235 248 188 166 348
350 517 595 189 275 288 422 397 590 109 169 130 197 144 192 7 -2 21 -30 33
-63 12 -32 36 -97 54 -144 109 -287 154 -456 129 -486 -12 -14 4 -55 100 -266
60 -131 71 -163 75 -225 3 -40 10 -92 15 -115 5 -24 12 -70 16 -103 3 -33 7
-76 10 -95 2 -19 7 -60 10 -90 3 -30 7 -64 9 -76 2 -12 7 -45 11 -75 3 -30 13
-79 21 -109 8 -30 17 -66 19 -80 5 -36 56 -140 92 -189 44 -60 100 -101 137
-101 18 0 48 12 71 27 92 64 382 207 461 228 103 27 332 150 459 246 32 24 68
51 82 60 13 9 54 45 90 79 61 58 65 64 60 97 -13 81 -107 151 -272 205 -53 17
-61 18 -188 23 -59 2 -118 7 -130 11 -12 4 -52 32 -89 63 -72 61 -177 211
-362 521 -51 85 -112 187 -136 225 -43 69 -44 71 -46 170 -4 143 -14 335 -19
370 -2 17 -7 55 -10 85 -8 70 -32 221 -45 280 -6 25 -13 55 -15 68 -3 12 -7
30 -9 40 -2 9 -12 51 -21 92 -9 41 -18 83 -21 93 -2 9 -6 26 -9 37 -3 11 -7
28 -9 38 -3 9 -17 57 -31 106 -25 85 -26 90 -9 100 19 12 137 77 296 164 63
34 115 72 152 110 58 60 126 150 126 167 0 5 6 21 13 36 8 14 21 45 30 70 8
24 29 76 45 115 26 62 58 179 51 186 -1 2 3 13 9 25 7 12 19 57 28 100 9 43
22 110 31 148 16 75 18 93 27 200 3 39 8 113 12 165 10 127 11 441 1 512 -4
32 -12 70 -18 85 -6 15 -10 29 -9 31 1 1 -1 15 -4 30 -3 15 -8 41 -11 58 -20
127 -96 344 -154 441 -26 44 -43 85 -45 110 -1 22 -6 45 -10 51 -3 6 -9 33
-11 59 -2 26 -9 72 -15 102 -15 77 -15 77 37 129 25 26 59 75 76 109 16 35 33
65 38 69 5 3 9 30 9 60 0 68 14 95 85 164 103 99 202 245 254 370 12 30 26 64
31 75 49 110 66 159 74 216 3 20 8 42 10 50 8 22 17 70 21 114 3 22 7 54 10
70 4 25 9 105 17 315 1 19 -2 58 -7 85 -4 28 -9 79 -10 115 -1 36 -6 76 -9 90
-4 14 -9 43 -12 65 -3 21 -8 43 -10 47 -12 19 16 5 67 -33 60 -45 234 -150
374 -224 50 -27 106 -58 125 -70 61 -37 179 -95 294 -145 456 -195 570 -249
631 -296 28 -22 62 -47 77 -56 36 -23 341 -146 403 -163 28 -7 74 -22 102 -34
52 -20 74 -26 143 -37 19 -3 43 -7 52 -10 16 -5 42 -11 83 -19 11 -2 43 -7 70
-9 28 -3 59 -8 70 -10 11 -2 28 -5 37 -5 27 -1 49 -55 47 -113 -2 -41 -8 -57
-35 -85 l-32 -34 -88 2 c-84 2 -88 1 -111 -25 -12 -15 -23 -39 -23 -54 0 -41
36 -91 77 -109 41 -17 151 -22 198 -10 17 4 35 9 40 10 28 6 86 35 140 68 33
21 74 41 90 44 17 4 54 20 83 37 79 43 121 44 174 3 51 -39 162 -78 227 -78
25 0 71 3 101 8 91 12 87 14 179 -70 47 -42 111 -89 148 -106 63 -32 65 -32
99 -16 45 22 49 36 26 89 -24 52 -15 69 32 61 26 -4 38 0 55 18 11 12 21 28
21 35 0 21 -48 71 -85 88 -42 20 -178 62 -226 69 -125 20 -247 72 -404 172
-38 25 -104 64 -145 87 -41 23 -120 76 -175 118 -55 43 -118 85 -140 96 -21
10 -85 55 -142 100 -56 45 -129 98 -160 117 -220 130 -393 228 -409 231 -11 2
-66 27 -124 54 -187 89 -216 101 -291 117 -108 22 -204 59 -289 112 -101 62
-201 115 -280 148 -68 28 -133 56 -187 81 -31 14 -119 51 -241 101 -67 27 -87
49 -118 127 -23 59 -188 246 -248 281 -41 24 -135 62 -175 70 -12 3 -30 7 -41
10 -139 35 -238 45 -376 40 -117 -4 -140 -2 -155 11 -14 12 -46 17 -143 19
-68 2 -129 5 -133 8 -5 3 -41 7 -81 8 -42 2 -78 9 -83 16 -11 12 -35 149 -43
246 -4 45 34 124 77 157 29 23 68 74 71 93 1 7 5 17 9 24 9 15 1 52 -28 123
-19 46 -24 82 -29 210 -6 176 -9 197 -35 290 -7 25 -15 53 -16 62 -14 72 -97
185 -167 228 -61 38 -85 43 -183 41 -88 -2 -162 -29 -249 -92 -52 -37 -134
-137 -170 -205 -39 -76 -105 -231 -111 -262 -3 -15 -7 -31 -9 -37 -1 -5 -6
-25 -10 -44 -5 -19 -21 -45 -37 -59 -16 -13 -29 -30 -29 -37 0 -14 -27 -28
-40 -20 -5 3 -25 34 -44 70 -20 35 -41 67 -47 71 -16 9 -28 49 -34 112 -10 92
-12 105 -23 147 -6 22 -13 54 -16 70 -16 96 -104 432 -122 466 -8 16 -12 29
-9 29 3 0 -1 13 -9 29 -9 16 -13 31 -10 34 5 5 16 53 17 75 0 15 11 15 40 1
19 -9 19 -8 -3 12 -28 23 -29 31 -19 72 4 15 11 51 14 80 4 28 9 63 11 77 26
163 25 587 -2 780 -3 19 -7 53 -10 75 -3 22 -7 47 -9 55 -3 8 -7 33 -11 55 -3
22 -10 60 -15 85 -25 121 -42 234 -54 360 -3 25 -11 72 -18 105 -13 58 -13 62
13 115 30 61 45 100 49 130 1 13 39 13 77 0 62 -20 189 -36 258 -33 155 7 314
69 441 173 109 89 162 152 201 238 20 42 40 86 45 97 5 11 14 45 20 75 6 30
14 69 17 85 7 34 8 282 1 305 -3 8 -8 20 -11 26 -4 6 -9 22 -12 37 -7 41 -72
157 -117 209 -46 54 -164 152 -244 203 -145 93 -364 137 -540 110z"/>
<path d="M16867 25894 c-1 -1 -63 -5 -137 -9 -175 -9 -357 -22 -430 -31 -14
-1 -46 -5 -72 -8 -87 -10 -176 -22 -223 -31 -11 -1 -42 -6 -70 -9 -27 -4 -62
-9 -76 -11 -14 -3 -43 -7 -65 -10 -53 -8 -84 -13 -114 -20 -14 -3 -38 -7 -55
-10 -25 -5 -41 -8 -95 -20 -3 -1 -18 -4 -35 -8 -16 -4 -41 -10 -55 -13 -14 -3
-29 -6 -35 -8 -5 -1 -23 -6 -40 -9 l-30 -7 0 -88 c0 -126 -19 -345 -41 -467
-3 -16 -7 -37 -8 -45 -2 -8 -8 -41 -15 -74 -9 -42 -10 -65 -2 -82 6 -13 17
-52 26 -86 26 -103 35 -120 59 -113 23 6 44 12 76 20 11 3 29 7 40 10 11 3 29
7 41 10 11 2 28 6 37 9 9 3 28 7 42 10 14 3 36 8 50 11 14 3 36 7 50 10 14 3
36 7 50 10 32 8 59 13 93 19 15 3 54 10 87 16 33 5 72 12 87 15 16 3 44 8 63
10 19 3 51 8 70 12 19 3 49 7 65 8 40 4 153 16 190 20 17 2 55 7 85 10 30 4
69 8 85 10 198 25 1091 26 1202 1 13 -3 60 -7 105 -10 69 -5 167 -16 188 -21
21 -5 95 -15 140 -20 30 -3 65 -7 76 -9 66 -13 94 -15 95 -6 2 13 4 21 13 45
4 11 13 33 19 49 14 38 63 93 96 110 35 17 106 11 134 -12 11 -10 17 -9 26 2
13 16 71 38 106 42 11 1 29 -4 40 -10 11 -6 52 -11 92 -11 44 -1 77 -6 87 -14
21 -17 31 -8 18 16 -18 34 -8 98 21 137 36 47 53 54 107 50 25 -1 72 -4 105
-6 41 -3 72 -11 95 -26 19 -12 53 -30 75 -40 39 -19 115 -92 115 -112 0 -6 9
-10 20 -10 12 0 32 -7 46 -17 28 -18 83 -118 88 -161 2 -15 12 -49 24 -77 11
-27 38 -95 60 -150 21 -55 43 -109 47 -120 5 -11 16 -40 25 -65 15 -41 21 -47
81 -71 105 -44 122 -51 164 -69 22 -10 60 -26 85 -36 25 -11 146 -70 269 -132
544 -273 1054 -618 1526 -1032 321 -281 690 -674 752 -800 24 -49 53 -131 53
-150 0 -15 15 -27 57 -45 31 -14 75 -41 98 -59 41 -34 165 -207 260 -361 26
-44 63 -102 80 -130 92 -145 133 -211 197 -325 88 -155 269 -508 316 -615 77
-178 146 -346 187 -460 83 -231 93 -261 119 -350 72 -250 98 -339 102 -356 2
-11 6 -28 9 -39 3 -11 7 -29 10 -40 3 -11 7 -29 10 -41 2 -11 6 -28 9 -37 3
-9 7 -34 11 -56 3 -21 7 -41 9 -45 3 -3 7 -26 11 -51 4 -25 8 -47 10 -50 3 -5
13 -58 20 -105 3 -17 17 -96 29 -160 12 -67 22 -140 31 -250 3 -38 8 -81 10
-95 5 -24 13 -101 21 -180 12 -128 18 -316 18 -590 1 -339 -7 -557 -28 -715
-2 -22 -8 -73 -11 -114 -4 -41 -9 -84 -11 -95 -2 -12 -7 -46 -10 -76 -3 -30
-7 -62 -9 -70 -2 -8 -7 -35 -10 -60 -6 -48 -12 -81 -19 -117 -3 -11 -8 -43
-12 -70 -4 -26 -10 -58 -15 -69 -4 -12 -11 -41 -14 -65 -4 -24 -8 -47 -11 -50
-2 -4 -6 -24 -9 -45 -4 -22 -9 -48 -12 -59 -7 -20 -8 -23 -17 -62 -3 -13 -8
-32 -11 -43 -3 -11 -7 -29 -10 -40 -3 -11 -7 -29 -10 -40 -3 -11 -8 -30 -11
-42 -3 -13 -8 -38 -10 -55 -2 -18 -10 -45 -16 -60 -6 -16 -12 -34 -14 -42 -7
-36 -100 -212 -137 -260 l-42 -54 -1 -116 c0 -128 -2 -136 -106 -386 -69 -167
-77 -184 -193 -415 -167 -334 -285 -539 -481 -831 -282 -420 -653 -860 -1002
-1186 l-141 -133 653 0 653 0 124 153 c320 392 511 662 746 1055 40 67 73 124
73 127 0 2 30 57 66 122 93 166 144 268 285 571 22 46 55 123 74 170 20 48 40
96 45 107 12 24 93 244 126 340 87 253 109 319 131 395 13 47 25 94 28 104 2
11 11 40 19 65 8 25 18 60 22 76 4 17 8 35 10 40 5 16 22 88 28 115 10 50 25
116 31 140 1 3 5 23 9 45 4 22 12 54 17 70 4 17 11 44 14 60 2 17 7 41 10 55
10 48 17 85 21 115 2 17 6 41 8 55 5 24 14 81 22 145 2 17 6 41 9 55 7 33 17
110 30 215 3 28 8 64 10 80 2 17 7 73 10 125 4 52 8 111 10 130 27 296 27 953
0 1250 -2 19 -6 75 -9 124 -6 83 -13 156 -22 216 -1 14 -6 52 -9 85 -4 33 -10
76 -15 95 -7 31 -13 65 -24 160 -4 33 -18 120 -22 145 -2 11 -7 34 -9 50 -3
17 -8 37 -10 45 -2 8 -7 29 -10 45 -2 17 -7 39 -10 50 -2 11 -9 38 -14 60 -5
22 -12 51 -15 65 -8 39 -13 61 -30 131 -8 35 -18 75 -20 89 -3 14 -12 52 -21
85 -8 33 -18 71 -21 84 -3 13 -9 32 -15 43 -5 10 -7 18 -5 18 3 0 1 12 -5 28
-6 15 -12 35 -15 46 -5 29 -88 277 -148 446 -84 239 -96 272 -117 317 -10 23
-19 44 -19 47 0 15 -175 392 -259 558 -155 306 -225 433 -356 638 -13 19 -55
87 -95 150 -117 185 -442 625 -604 815 -273 322 -646 694 -961 961 -92 78
-364 287 -546 420 -176 129 -536 358 -704 449 -38 21 -106 58 -150 83 -230
128 -655 324 -930 429 -22 8 -56 21 -75 29 -97 38 -527 180 -570 189 -8 2 -27
8 -42 14 -16 6 -28 9 -28 6 0 -2 -16 3 -35 11 -19 8 -38 14 -42 14 -5 0 -26 5
-48 11 -43 12 -66 17 -105 25 -14 3 -33 7 -42 10 -10 3 -30 7 -45 10 -16 3
-36 7 -45 10 -9 3 -25 6 -35 8 -10 2 -45 11 -78 19 -33 8 -78 18 -100 23 -22
4 -42 8 -45 9 -41 11 -112 24 -220 40 -25 4 -54 8 -65 10 -33 5 -98 14 -133
19 -18 3 -45 7 -60 10 -15 3 -49 8 -77 11 -27 3 -70 8 -95 11 -95 12 -107 13
-325 29 -38 3 -101 8 -140 11 -62 4 -783 12 -788 8z"/>
<path d="M14285 25374 c-49 -19 -104 -41 -122 -49 -17 -8 -34 -15 -37 -15 -27
0 -609 -269 -741 -343 -116 -65 -177 -98 -240 -132 -131 -70 -519 -319 -700
-449 -709 -510 -1290 -1080 -1815 -1781 -134 -179 -324 -458 -380 -560 -19
-33 -59 -100 -90 -150 -31 -49 -70 -115 -87 -145 -16 -30 -40 -73 -53 -95
-105 -184 -353 -721 -439 -950 -42 -113 -53 -140 -67 -173 -8 -18 -14 -38 -14
-45 0 -7 -6 -24 -14 -38 -23 -45 -139 -415 -152 -483 -3 -16 -7 -33 -10 -38
-3 -4 -7 -16 -10 -25 -2 -10 -20 -79 -39 -153 -19 -74 -38 -151 -41 -170 -3
-19 -9 -48 -14 -65 -5 -16 -12 -46 -15 -65 -3 -19 -8 -42 -10 -50 -8 -27 -34
-170 -41 -220 -2 -19 -7 -47 -10 -62 -3 -15 -7 -42 -10 -60 -13 -99 -22 -157
-29 -188 -2 -14 -7 -47 -10 -75 -3 -27 -7 -66 -10 -85 -9 -66 -14 -105 -20
-170 -4 -36 -9 -85 -11 -110 -28 -278 -28 -1043 0 -1345 12 -125 21 -212 31
-285 2 -14 6 -47 9 -75 4 -27 8 -61 11 -75 2 -14 6 -43 10 -65 3 -22 7 -56 10
-75 3 -19 8 -53 11 -75 3 -22 7 -49 9 -60 2 -11 6 -40 9 -65 4 -25 9 -53 12
-62 5 -16 9 -35 19 -88 3 -14 7 -36 10 -50 3 -14 8 -41 11 -60 29 -167 228
-875 274 -975 5 -11 39 -99 74 -195 79 -215 102 -270 198 -480 17 -36 37 -83
46 -105 19 -49 188 -380 231 -453 17 -29 31 -55 31 -57 0 -3 30 -55 67 -117
262 -444 477 -753 767 -1100 l139 -168 647 0 647 0 -242 243 c-235 236 -390
406 -451 497 -38 55 -73 147 -78 202 -3 39 -6 42 -77 79 -113 59 -162 113
-320 349 -79 118 -139 211 -139 214 0 1 -36 63 -80 137 -108 179 -410 794
-410 833 0 3 -16 40 -36 83 -20 43 -54 128 -76 188 -57 160 -147 427 -152 450
-3 11 -19 67 -36 125 -18 58 -34 113 -36 123 -2 9 -6 26 -9 37 -3 11 -7 29
-10 40 -3 11 -7 29 -10 40 -3 11 -7 29 -10 40 -21 84 -30 127 -41 190 -3 19
-10 49 -15 65 -8 28 -15 64 -25 127 -5 32 -14 84 -19 113 -9 45 -23 141 -30
206 -3 25 -7 56 -10 68 -2 12 -7 50 -11 84 -3 34 -7 76 -9 92 -2 17 -7 66 -12
110 -16 155 -1 260 50 343 l20 34 -21 51 c-19 45 -41 120 -58 192 -13 56 -16
158 -9 310 4 91 16 282 21 329 2 22 6 70 9 106 3 36 8 76 10 90 2 14 7 45 10
70 3 25 8 56 10 70 2 14 7 45 11 70 7 52 9 62 17 110 7 38 12 70 28 170 5 36
12 73 15 83 3 11 7 29 9 40 2 12 6 31 8 42 3 11 11 43 17 70 14 62 19 80 25
105 3 11 7 29 10 40 3 11 7 30 10 42 10 48 80 291 117 408 21 69 41 132 43
140 2 8 26 78 54 155 59 167 97 258 237 575 84 190 280 558 397 745 171 273
183 289 381 555 349 470 702 841 1176 1236 247 206 698 523 767 539 10 2 36 9
58 14 48 12 43 11 55 11 5 0 42 30 82 66 141 127 222 176 559 338 53 25 99 46
102 46 3 0 43 17 89 39 45 21 93 41 105 45 21 7 31 30 40 96 3 19 10 49 17 65
16 39 21 188 7 213 -5 10 -15 48 -21 83 -5 35 -13 75 -16 89 -3 14 -7 39 -9
55 -2 17 -7 53 -11 80 -5 28 -8 110 -9 182 0 83 -4 133 -10 132 -5 -1 -50 -16
-100 -35z"/>
<path d="M19115 25161 c-10 -18 4 -67 50 -164 24 -54 43 -97 40 -97 -4 0 38
-128 55 -165 4 -11 20 -45 33 -75 34 -74 39 -103 23 -125 -12 -17 -17 -15 -74
24 -67 45 -105 52 -122 21 -13 -24 -12 -25 59 -113 31 -38 79 -97 106 -132 28
-35 94 -112 148 -172 110 -122 130 -157 133 -228 2 -49 10 -120 19 -180 3 -16
7 -42 9 -58 3 -15 7 -35 10 -45 2 -9 8 -69 11 -132 4 -63 8 -128 10 -145 1
-16 6 -62 9 -101 4 -39 8 -80 10 -90 3 -17 7 -40 22 -139 3 -16 9 -46 14 -65
5 -19 11 -46 14 -60 5 -23 8 -36 20 -87 3 -10 11 -38 19 -63 7 -25 12 -55 11
-65 -2 -11 -4 -43 -5 -72 -3 -55 -4 -56 -64 -33 -16 6 -49 29 -71 52 -35 34
-46 39 -70 34 -56 -12 -158 -24 -268 -31 -49 -3 -100 -8 -112 -11 -13 -3 -49
-38 -81 -77 -32 -39 -65 -79 -75 -89 -10 -10 -19 -28 -19 -40 -3 -34 1 -121 5
-125 3 -3 19 -7 75 -19 13 -3 36 -11 52 -19 15 -8 33 -15 38 -15 6 0 46 -16
88 -36 200 -93 242 -112 264 -119 13 -4 82 -42 154 -85 71 -42 162 -95 200
-117 81 -48 179 -118 238 -172 23 -21 67 -51 96 -67 30 -15 102 -64 160 -107
58 -44 116 -83 130 -88 13 -5 36 -18 52 -29 29 -21 44 -14 35 18 -3 9 -7 28
-10 42 -2 14 -14 47 -26 74 -23 54 -60 183 -76 266 -2 14 -13 66 -24 115 -10
50 -21 104 -24 120 -3 17 -8 39 -11 50 -15 62 -34 156 -40 195 -3 25 -10 62
-15 84 -5 21 -7 90 -6 152 2 67 -2 136 -9 168 -16 70 -120 355 -205 566 -21
52 -50 124 -65 160 -48 117 -93 239 -149 400 -19 52 -55 149 -81 215 -31 79
-48 139 -50 175 -2 30 -10 80 -18 110 -16 58 -87 247 -117 315 -48 106 -80
189 -80 209 0 12 -6 30 -14 41 -7 11 -15 29 -17 39 -5 24 -40 30 -56 10 -9
-13 -16 -5 -42 49 -39 81 -58 99 -77 73 -7 -11 -11 -23 -8 -27 3 -5 7 -18 9
-29 2 -12 11 -35 20 -52 17 -36 19 -48 5 -48 -8 0 -47 64 -48 80 -3 36 -61
150 -76 150 -18 0 -23 -49 -7 -65 11 -11 38 -83 51 -133 15 -59 -13 -30 -45
47 -47 112 -117 188 -140 152z"/>
<path d="M18741 24984 c-24 -17 -109 -183 -117 -230 -6 -35 -18 -49 -34 -39
-10 6 -11 37 -7 118 6 116 -1 147 -30 143 -30 -4 -84 -143 -108 -276 -2 -14
-6 -35 -9 -47 -4 -13 -8 -33 -12 -45 -3 -13 -7 -34 -10 -48 -5 -23 -20 -86
-28 -120 -8 -30 -28 -116 -32 -140 -3 -13 -9 -29 -14 -35 -4 -5 -9 -35 -11
-65 -1 -30 -6 -62 -11 -70 -4 -8 -41 -87 -82 -175 -41 -88 -109 -232 -153
-320 -43 -88 -90 -185 -103 -215 -13 -30 -31 -73 -41 -95 -9 -22 -40 -96 -68
-165 l-50 -124 37 -43 c92 -108 123 -151 144 -200 15 -35 31 -55 48 -62 126
-47 197 -75 205 -83 15 -13 22 -9 28 15 4 12 6 24 6 27 0 3 9 30 21 60 12 30
21 55 20 55 -4 0 21 91 35 128 8 20 13 37 10 37 -2 0 3 16 11 35 8 19 12 35
10 35 -3 0 6 33 20 73 24 69 32 99 39 142 1 11 10 63 19 115 9 52 18 115 21
140 3 25 15 90 26 145 12 55 23 111 25 124 3 13 10 34 17 45 6 12 13 32 15 45
5 40 36 90 136 226 76 103 110 140 164 177 37 26 70 48 74 48 16 0 98 63 98
75 0 30 -54 32 -120 4 -52 -23 -80 -17 -100 21 -14 27 -2 54 82 175 40 57 84
123 98 146 14 23 42 64 62 92 29 39 35 54 28 68 -7 11 -18 16 -33 14 -25 -5
-90 -73 -118 -125 -42 -77 -66 -114 -77 -118 -19 -6 -14 40 9 93 11 25 22 60
24 76 2 16 13 49 24 73 17 39 17 46 5 57 -29 24 -64 -10 -111 -105 -23 -49
-43 -99 -43 -110 0 -36 -12 -66 -25 -66 -28 0 -33 71 -9 135 8 22 16 45 17 50
2 6 5 15 9 20 3 6 9 26 13 46 9 46 -11 66 -44 43z"/>
<path d="M16790 24790 c-52 -4 -144 -10 -203 -14 -59 -3 -112 -8 -116 -10 -4
-3 -34 -6 -66 -7 l-58 -2 29 -21 c42 -30 110 -106 131 -144 17 -30 21 -32 58
-27 84 11 387 25 559 25 181 0 568 -16 686 -28 l64 -7 -89 -33 c-139 -52 -313
-132 -385 -176 -240 -148 -425 -307 -593 -508 -108 -130 -276 -398 -272 -434
5 -38 18 -84 24 -84 3 -1 32 -3 63 -5 l57 -5 42 73 c218 379 485 650 824 835
145 79 447 197 555 216 19 4 40 8 45 10 25 8 63 16 89 20 16 3 30 7 32 8 5 6
54 202 54 219 0 12 -12 18 -42 22 -312 40 -465 58 -573 67 -168 14 -792 21
-915 10z"/>
<path d="M15560 24614 c-80 -19 -155 -37 -168 -40 -13 -2 -21 -8 -18 -12 6 -9
14 -45 26 -115 14 -77 20 -89 38 -82 10 4 39 11 65 18 44 10 51 16 72 57 13
25 51 83 84 128 34 45 58 82 53 81 -4 0 -72 -16 -152 -35z"/>
<path d="M19890 24234 c0 -8 5 -25 12 -37 6 -12 28 -63 47 -114 l36 -91 245
-124 c304 -154 463 -246 700 -403 387 -256 715 -522 1043 -844 186 -183 360
-372 394 -429 26 -44 36 -119 21 -165 -33 -105 -53 -129 -330 -402 -150 -148
-358 -350 -461 -449 -183 -174 -187 -179 -181 -211 9 -52 -5 -94 -46 -139 -22
-24 -40 -55 -43 -74 -8 -47 -31 -79 -85 -113 -51 -32 -122 -39 -193 -18 l-38
12 -123 -114 c-68 -63 -189 -174 -269 -247 -144 -129 -146 -132 -152 -180 -3
-27 -15 -78 -27 -113 -12 -35 -24 -75 -27 -88 -2 -13 -8 -32 -14 -43 -5 -10
-7 -18 -4 -18 7 0 410 362 740 664 356 326 560 521 962 916 386 379 396 386
518 409 38 7 47 5 63 -13 37 -40 315 -483 447 -711 78 -134 268 -510 337 -665
85 -192 233 -599 253 -699 2 -9 8 -29 15 -46 12 -31 85 -292 94 -335 3 -14 7
-34 10 -45 14 -58 45 -205 50 -240 3 -22 12 -71 20 -110 8 -38 17 -90 20 -115
3 -25 16 -119 30 -210 14 -91 27 -196 31 -235 3 -38 8 -99 11 -135 20 -207 13
-919 -10 -1095 -2 -16 -7 -61 -11 -100 -5 -38 -9 -77 -10 -85 -1 -8 -6 -51
-10 -95 -6 -74 -36 -266 -50 -325 -3 -14 -8 -45 -11 -70 -3 -24 -7 -47 -10
-51 -2 -4 -7 -24 -10 -45 -3 -22 -19 -95 -35 -164 -17 -69 -32 -135 -34 -146
-14 -62 -59 -206 -81 -253 -51 -113 -144 -195 -272 -241 -218 -77 -302 -103
-438 -134 -82 -19 -165 -37 -184 -40 -19 -3 -46 -8 -60 -11 -54 -12 -290 -44
-370 -50 -47 -4 -101 -9 -120 -11 -109 -12 -620 -15 -850 -5 -371 16 -883 47
-1070 65 -192 19 -441 36 -449 32 -4 -3 -13 -25 -19 -48 -14 -55 -22 -129 -14
-124 4 2 50 0 102 -5 524 -47 842 -72 1075 -84 66 -4 145 -8 175 -10 222 -13
632 -16 870 -5 427 18 753 63 1080 149 63 17 129 31 147 31 17 0 64 7 105 15
40 9 85 13 101 9 27 -6 29 -9 23 -43 -17 -108 -333 -771 -499 -1046 -427 -712
-902 -1266 -1560 -1818 l-67 -57 165 0 165 0 148 134 c395 359 788 807 1061
1211 290 429 476 764 665 1198 119 273 140 336 133 414 -2 34 -14 81 -25 103
l-20 41 49 42 c101 86 172 226 223 437 71 290 137 623 156 785 6 50 17 137 25
195 15 109 19 163 32 365 15 227 7 854 -12 1050 -7 69 -36 334 -40 363 -9 75
-80 451 -105 557 -10 45 -21 92 -24 105 -12 60 -78 298 -121 440 -137 452
-414 1066 -681 1510 -123 205 -326 520 -376 583 -43 54 -105 87 -180 95 l-63
7 -7 80 c-13 159 -42 206 -307 484 -482 509 -1081 977 -1657 1297 -130 72
-553 284 -619 311 -17 6 -47 19 -69 27 -48 20 -56 20 -56 0z"/>
<path d="M14395 24232 c-6 -5 -55 -28 -110 -52 -152 -65 -385 -182 -480 -241
-58 -35 -113 -81 -168 -139 l-83 -87 -70 -5 c-85 -6 -126 -26 -305 -149 -185
-127 -220 -153 -415 -311 -554 -445 -983 -909 -1400 -1511 -90 -130 -264 -406
-310 -492 -6 -11 -44 -80 -84 -154 -213 -390 -395 -828 -528 -1266 -64 -208
-75 -248 -97 -330 -8 -33 -18 -69 -21 -80 -3 -11 -7 -30 -10 -43 -2 -13 -15
-74 -29 -135 -24 -111 -80 -425 -90 -502 -3 -22 -7 -62 -10 -90 -3 -27 -13
-106 -21 -175 -9 -69 -16 -132 -16 -140 0 -8 -4 -103 -10 -210 -5 -107 -9
-221 -9 -253 2 -97 29 -206 76 -302 l44 -90 -29 -25 c-40 -35 -70 -108 -72
-172 0 -29 5 -105 11 -168 20 -199 42 -383 51 -440 5 -30 12 -73 15 -95 4 -22
8 -49 10 -60 3 -20 73 -344 81 -377 7 -32 13 -52 50 -188 20 -74 38 -142 39
-150 26 -112 164 -512 245 -710 193 -471 510 -1048 762 -1391 77 -105 170
-160 294 -174 35 -3 36 -7 23 -59 -15 -61 -6 -132 25 -198 45 -94 419 -494
683 -732 l151 -136 167 0 166 0 -75 61 c-252 202 -543 485 -844 822 -90 100
-91 123 -5 229 51 63 67 75 167 125 123 62 439 232 558 300 57 33 90 60 126
106 27 34 79 98 116 142 55 66 66 85 64 112 -1 17 -4 30 -8 29 -3 -2 -36 -23
-75 -46 -197 -120 -565 -326 -760 -425 -237 -121 -234 -120 -405 -120 -90 0
-97 2 -137 30 -84 59 -406 582 -613 995 -135 267 -358 840 -406 1039 -2 9 -15
54 -29 101 -46 152 -123 475 -140 589 -3 14 -11 69 -20 121 -30 187 -54 356
-60 425 -3 39 -9 106 -14 150 -5 44 -7 82 -5 84 2 3 25 -5 49 -17 25 -12 59
-22 75 -22 23 0 61 -24 153 -94 180 -138 461 -306 650 -388 138 -60 385 -141
497 -163 39 -7 107 -18 125 -20 11 -1 52 -6 90 -11 75 -10 460 -11 510 -1 291
52 477 105 685 197 171 75 403 212 610 360 62 44 115 80 118 80 4 0 22 -31 40
-69 76 -158 383 -696 493 -863 l37 -58 59 83 59 82 -33 50 c-171 257 -522 884
-503 898 3 1 57 48 121 104 222 196 489 487 652 714 l83 114 -16 56 c-8 30
-24 69 -35 85 -11 16 -23 35 -26 43 -3 9 -34 -27 -82 -97 -43 -62 -97 -135
-120 -164 -24 -29 -79 -98 -124 -153 -77 -96 -447 -468 -510 -513 l-31 -22
-65 148 c-171 385 -271 642 -363 930 -115 363 -174 569 -208 732 -3 14 -12 52
-20 85 -8 33 -17 74 -19 90 -3 17 -23 127 -45 245 -56 300 -80 504 -109 920
-10 144 -10 495 -1 745 21 532 146 1158 338 1685 150 414 236 560 392 676 54
40 252 143 441 229 123 56 128 60 122 84 -4 14 -15 63 -24 109 -10 53 -20 80
-26 74z m-960 -818 c-162 -363 -335 -964 -394 -1369 -49 -337 -81 -756 -81
-1070 0 -222 30 -663 61 -890 10 -77 21 -156 23 -175 2 -19 12 -80 21 -135 9
-55 18 -111 20 -125 3 -14 9 -43 14 -65 5 -22 12 -53 15 -70 6 -34 7 -39 35
-158 12 -49 23 -101 26 -115 2 -15 31 -128 64 -252 128 -483 347 -1091 531
-1475 l72 -150 -29 -23 c-15 -13 -118 -83 -228 -157 -301 -201 -507 -303 -754
-374 -75 -21 -149 -41 -166 -44 -16 -3 -68 -13 -115 -23 -67 -14 -134 -18
-315 -18 -127 0 -255 5 -285 11 -30 6 -68 14 -85 17 -389 78 -769 257 -1133
535 -128 98 -131 100 -233 216 -44 50 -86 111 -112 164 l-42 84 -3 151 c-3
197 36 678 69 856 6 30 12 69 15 85 14 83 18 104 55 290 61 302 139 589 226
830 36 99 80 221 99 272 78 216 266 610 431 903 370 657 903 1302 1498 1810
200 171 313 261 450 357 197 138 270 184 273 175 1 -5 -9 -36 -23 -68z"/>
<path d="M17984 21824 c3 -21 8 -50 11 -64 3 -14 7 -42 10 -63 3 -21 9 -46 15
-56 5 -10 11 -29 14 -42 3 -13 8 -35 11 -49 3 -14 8 -36 11 -49 3 -14 8 -29
12 -35 3 -6 18 -45 33 -86 15 -41 42 -113 59 -160 17 -47 36 -98 41 -115 9
-28 5 -163 -7 -217 -3 -13 -7 -41 -10 -63 -3 -22 -7 -49 -9 -60 -2 -11 -7 -38
-11 -60 -3 -22 -15 -67 -26 -100 -22 -66 -27 -201 -8 -249 5 -15 12 -73 15
-129 11 -223 21 -319 34 -347 4 -8 9 -57 10 -109 3 -90 2 -94 -27 -130 -40
-50 -136 -223 -162 -293 -50 -135 -45 -220 17 -295 59 -70 74 -104 63 -141
-12 -45 -30 -66 -99 -122 -173 -139 -186 -156 -206 -270 -3 -19 -7 -42 -9 -50
-7 -34 -27 -70 -75 -134 -28 -37 -51 -76 -51 -87 0 -12 7 -46 16 -76 16 -56
13 -184 -5 -208 -5 -5 -12 -23 -16 -40 -5 -16 -9 -34 -11 -40 -5 -19 -15 -60
-20 -85 -3 -14 -8 -34 -11 -45 -7 -20 -8 -23 -17 -62 -16 -62 -18 -70 -30
-128 -1 -5 -5 -19 -9 -30 -3 -11 -8 -36 -11 -55 -3 -19 -8 -46 -11 -60 -3 -14
-8 -41 -11 -60 -2 -19 -6 -42 -9 -50 -3 -8 -7 -35 -10 -59 -3 -24 -7 -47 -9
-50 -7 -11 -31 -270 -27 -296 4 -25 28 -53 63 -71 60 -31 74 -90 51 -209 -14
-75 -51 -178 -86 -235 -35 -60 -189 -262 -247 -326 -104 -112 -167 -214 -205
-326 -20 -57 -38 -112 -40 -123 -3 -11 -8 -33 -12 -50 -4 -16 -7 -32 -8 -35
-3 -15 -38 -118 -46 -135 -5 -11 -12 -31 -15 -45 -3 -14 -6 -29 -8 -35 -18
-62 -17 -65 5 -97 30 -42 78 -90 112 -113 18 -11 53 -18 114 -21 116 -5 157
-9 170 -17 6 -4 27 -9 47 -13 20 -3 53 -12 73 -20 19 -9 39 -12 43 -7 49 50
171 213 192 255 31 60 67 150 74 182 8 33 8 35 43 146 67 218 71 226 287 528
59 83 102 121 122 108 4 -2 23 -7 42 -10 49 -8 89 -16 130 -25 82 -18 202 3
289 51 40 22 87 42 103 43 26 2 32 -2 53 -49 27 -59 58 -160 60 -196 5 -71 46
-189 86 -247 18 -25 57 -72 86 -102 30 -31 56 -67 59 -81 3 -14 9 -41 14 -61
6 -20 10 -61 10 -91 0 -30 4 -79 10 -109 5 -30 11 -79 14 -109 7 -70 14 -131
25 -200 10 -63 5 -157 -11 -215 -16 -57 -18 -65 -23 -115 -3 -25 -8 -54 -12
-65 -9 -26 -10 -32 -18 -80 -3 -22 -8 -48 -11 -57 -3 -9 -7 -27 -9 -40 -3 -13
-7 -35 -11 -50 -3 -15 -5 -30 -5 -33 1 -3 -5 -18 -12 -33 -15 -29 -35 -104
-42 -162 -3 -19 -7 -46 -10 -60 -7 -29 -11 -63 -20 -140 -4 -30 -9 -66 -11
-80 -11 -69 -11 -173 1 -228 11 -56 9 -96 -9 -177 -4 -23 -70 -238 -91 -300
-24 -71 -92 -308 -96 -330 0 -5 -5 -17 -10 -26 -4 -9 -11 -31 -14 -49 -3 -18
-11 -42 -17 -54 -6 -11 -10 -21 -9 -21 4 0 -17 -77 -40 -150 -23 -70 -43 -108
-78 -148 -28 -32 -189 -155 -267 -205 -66 -42 -79 -71 -71 -165 8 -97 42 -202
82 -257 46 -63 95 -153 102 -187 10 -48 5 -105 -13 -165 -31 -103 -40 -262
-17 -316 54 -129 260 -260 417 -264 113 -4 165 36 188 142 8 36 13 74 11 85
-2 11 -5 85 -7 165 -2 80 -9 158 -15 174 -14 34 -18 187 -7 276 11 90 13 105
15 105 2 0 4 9 6 19 6 31 115 135 177 168 106 56 111 104 20 172 -31 22 -76
60 -100 83 -40 39 -43 44 -37 80 7 38 54 172 95 266 5 12 25 60 44 107 18 47
46 112 61 145 15 33 36 80 47 105 11 25 28 68 38 95 10 28 35 93 58 145 66
155 166 464 187 580 3 14 7 36 10 50 4 14 8 43 11 65 3 22 7 47 10 55 3 8 8
33 10 55 3 22 7 51 10 65 2 14 6 75 9 135 7 144 14 251 21 295 3 19 7 51 9 70
9 88 17 153 20 172 5 24 14 188 20 383 5 140 11 206 22 245 3 14 7 27 8 30 17
65 44 139 75 205 21 45 45 113 53 151 13 67 16 273 4 339 -12 67 -16 94 -22
173 -4 46 -13 105 -19 130 -13 49 -13 83 -2 192 11 106 16 130 28 153 6 12 13
40 15 62 2 22 9 64 15 94 5 30 11 64 13 75 2 12 8 46 15 76 6 30 13 66 15 80
2 14 6 36 9 50 3 14 8 48 11 75 3 28 7 64 10 80 2 17 7 66 10 110 3 44 8 93 9
110 2 16 -1 41 -6 55 -6 14 -12 46 -14 73 -7 93 -13 125 -39 203 -34 106 -31
99 -113 264 -40 80 -72 151 -72 158 0 7 10 36 22 64 19 46 20 55 9 97 -21 76
-22 72 10 146 5 11 15 52 24 90 8 39 17 79 20 90 4 11 8 29 10 41 16 72 201
518 317 764 75 157 90 192 95 225 2 17 16 63 30 104 36 106 35 98 38 301 2
108 8 197 15 215 6 16 10 52 9 80 -2 33 4 63 15 86 19 36 76 185 76 197 0 4
-12 13 -27 19 -16 6 -44 21 -64 33 -34 21 -38 21 -70 7 -19 -9 -56 -25 -84
-36 -27 -10 -81 -38 -120 -60 -101 -60 -190 -85 -300 -85 -77 0 -99 4 -151 28
-106 48 -152 113 -152 216 0 80 37 143 103 178 40 21 49 23 120 23 l60 1 -45
8 c-25 4 -65 11 -90 15 -75 11 -84 13 -110 19 -42 9 -62 14 -135 36 -38 11
-94 27 -124 35 -67 19 -285 106 -371 148 -36 17 -99 55 -140 83 -76 52 -155
95 -200 109 -22 7 -101 42 -355 160 -44 20 -84 38 -90 39 -28 6 -93 31 -114
44 l-23 16 6 -40z"/>
<path d="M17149 17313 c-140 -114 -357 -287 -484 -386 -126 -99 -236 -185
-243 -192 -11 -10 -12 -26 -1 -91 6 -44 13 -88 14 -99 1 -11 5 -19 9 -19 8 1
261 199 680 532 l231 183 18 82 c9 45 19 96 21 112 2 17 7 42 11 58 4 15 5 27
3 27 -3 0 -119 -93 -259 -207z"/>
<path d="M18307 15500 c-93 -5 -226 -14 -295 -21 -70 -7 -134 -13 -143 -13
-10 0 -27 -32 -51 -98 l-35 -98 31 5 c76 13 122 19 283 36 138 14 623 22 781
12 97 -6 131 -5 128 3 -2 6 -8 48 -11 93 l-8 81 -131 0 c-72 0 -187 2 -256 4
-69 2 -201 1 -293 -4z"/>
<path d="M15206 15392 c-27 -37 -51 -74 -53 -82 -6 -25 404 -495 600 -689 l75
-74 -75 -88 c-228 -265 -397 -563 -488 -863 -35 -115 -84 -327 -91 -391 -3
-27 -7 -56 -10 -64 -17 -51 -26 -601 -11 -693 l8 -48 91 0 90 0 -6 28 c-14 62
-18 421 -7 547 14 158 19 201 28 240 4 17 8 37 9 45 12 67 20 99 50 200 119
395 248 628 492 891 39 43 58 57 66 49 10 -7 9 10 -1 73 -7 45 -15 111 -19
146 l-5 65 -151 155 c-133 136 -323 352 -482 546 -27 33 -52 63 -56 67 -3 4
-28 -23 -54 -60z"/>
<path d="M17056 14188 c-32 -16 -100 -43 -150 -59 -132 -44 -334 -153 -347
-187 -27 -75 -42 -89 -111 -98 -68 -10 -84 -20 -128 -79 -85 -116 -86 -116
-78 -310 1 -35 -4 -57 -26 -108 -8 -21 -15 -38 -15 -40 0 -1 -2 -9 -5 -17 -3
-8 -26 -71 -50 -140 -58 -164 -86 -227 -122 -269 -28 -33 -29 -40 -32 -147 -4
-131 -1 -139 84 -232 101 -110 197 -132 314 -72 56 28 172 146 189 190 7 19
19 49 26 65 12 28 63 167 69 190 2 6 6 24 10 40 12 47 26 83 72 183 55 119
113 201 171 242 42 31 83 84 91 120 7 32 1 248 -9 300 -9 52 -6 66 50 255 33
109 59 200 58 200 -1 1 -29 -11 -61 -27z"/>
<path d="M17140 13546 c0 -58 -1 -109 -2 -113 -2 -14 413 -296 652 -443 231
-143 580 -336 751 -418 3 -1 6 3 7 10 1 7 13 46 27 87 14 40 25 74 23 75 -2 2
-75 40 -163 86 -237 123 -367 199 -710 416 -195 123 -477 319 -572 396 -10 8
-13 -12 -13 -96z"/>
<path d="M6489 11988 c-34 -67 -135 -262 -204 -393 -39 -74 -85 -163 -242
-465 -33 -63 -111 -214 -173 -335 -62 -121 -142 -273 -177 -338 -34 -65 -63
-120 -63 -122 0 -4 -83 -163 -270 -520 -127 -242 -230 -443 -230 -449 0 -3
5523 -6 12274 -6 l12275 0 -43 93 c-24 50 -65 139 -91 197 -55 123 -78 173
-134 293 -23 49 -41 90 -41 92 0 2 -15 37 -34 77 -65 140 -156 338 -156 342 0
3 -61 137 -115 251 -14 31 -38 83 -120 265 -26 58 -87 192 -136 297 -49 106
-100 220 -114 254 -15 34 -30 68 -35 78 -5 9 -22 45 -39 81 -16 36 -52 115
-80 177 -28 61 -58 130 -67 152 l-16 41 -4532 0 -4531 -1 -28 -40 c-15 -22
-49 -53 -75 -69 -99 -61 -149 -108 -156 -148 -18 -95 -21 -122 -20 -197 1 -76
5 -101 23 -170 4 -16 6 -55 3 -85 -2 -30 -4 -64 -3 -75 1 -11 3 -74 5 -140 2
-66 7 -163 11 -215 8 -112 11 -142 19 -275 7 -95 11 -143 21 -245 4 -45 15
-184 20 -250 6 -95 17 -247 18 -263 2 -17 -13 -18 -225 -18 -126 0 -236 1
-246 1 -17 0 -32 40 -58 155 -2 6 -6 21 -9 35 -4 14 -10 43 -15 65 -5 22 -27
114 -50 205 -46 181 -49 192 -56 233 -5 24 -53 221 -70 282 -3 11 -6 26 -8 34
-1 8 -17 26 -34 39 l-32 24 5 -43 c2 -24 6 -98 10 -164 6 -133 13 -242 20
-355 3 -41 7 -113 10 -160 3 -47 8 -105 10 -130 3 -25 7 -85 10 -135 l5 -90
-148 2 c-81 1 -151 2 -157 2 -5 1 -10 11 -11 24 0 12 -4 119 -9 237 -4 118 -9
238 -10 265 -4 80 -23 706 -30 995 l-4 175 101 -3 101 -4 -6 42 c-3 26 -25 73
-61 130 -49 77 -88 168 -102 237 -2 12 -9 34 -14 49 -6 14 -8 30 -4 35 3 5
-2291 9 -5810 9 l-5816 0 -31 -62z m3080 -441 c104 -51 110 -124 31 -354 -21
-62 -43 -120 -47 -128 -7 -13 -36 -16 -156 -18 -81 -1 -147 -2 -147 -2 0 0 13
34 29 75 15 41 31 87 35 102 9 38 -15 58 -70 58 -38 0 -50 -5 -74 -31 -15 -17
-38 -59 -50 -93 -12 -33 -27 -72 -33 -85 -7 -13 -12 -44 -12 -69 0 -39 5 -48
37 -77 21 -18 71 -43 112 -58 131 -44 180 -98 179 -197 0 -73 -21 -151 -94
-344 -71 -188 -87 -220 -144 -302 -50 -70 -92 -105 -173 -142 -64 -29 -60 -28
-122 -41 -47 -10 -307 -8 -350 2 -54 13 -118 50 -129 74 -21 47 -24 106 -7
163 9 30 16 55 15 55 -4 0 16 65 26 85 7 14 28 66 47 115 l35 90 156 3 c86 2
157 2 157 0 0 -2 -12 -35 -26 -73 -54 -147 -58 -164 -46 -190 10 -21 19 -25
52 -25 71 0 103 21 135 86 57 118 73 161 81 213 4 20 7 43 9 51 4 26 -14 49
-55 70 -22 11 -40 18 -40 14 0 -4 -7 0 -17 7 -9 8 -19 13 -22 12 -20 -7 -127
45 -161 79 -75 76 -70 126 48 429 99 255 182 372 306 433 72 35 124 42 301 38
120 -3 146 -6 184 -25z m18136 19 c49 -7 67 -13 126 -39 75 -33 129 -83 193
-181 48 -73 156 -277 156 -294 0 -4 -66 -6 -147 -5 l-147 1 -38 79 c-20 43
-50 93 -66 112 -24 30 -35 35 -84 39 -50 4 -56 2 -61 -17 -7 -30 6 -72 56
-171 64 -126 132 -171 352 -230 162 -44 289 -132 373 -259 67 -100 244 -466
258 -533 13 -57 5 -128 -16 -158 -11 -15 -43 -38 -72 -51 -49 -22 -66 -23
-223 -23 -108 0 -182 4 -200 12 -17 6 -42 13 -56 16 -80 13 -190 104 -262 217
-51 81 -167 321 -167 346 0 3 70 3 155 2 l155 -3 62 -123 c53 -109 65 -126 99
-143 48 -25 100 -25 130 -1 l23 18 -73 149 c-40 82 -84 160 -99 173 -39 34
-176 91 -194 81 -2 -1 -16 4 -33 10 -16 7 -39 14 -49 16 -39 7 -162 58 -200
81 -84 53 -191 190 -241 308 -11 28 -28 64 -37 80 -23 44 -89 212 -104 270 -8
28 -13 72 -12 99 1 41 7 54 34 80 20 19 50 34 80 41 45 9 262 10 329 1z
m-20114 -34 c72 -24 95 -81 74 -184 -15 -69 -27 -99 -104 -261 -86 -181 -138
-244 -248 -301 -52 -27 -70 -33 -108 -36 -12 -1 1 -9 31 -21 58 -22 84 -62 84
-130 0 -38 -43 -182 -60 -204 -5 -6 -18 -35 -30 -65 -57 -145 -122 -260 -187
-330 -36 -39 -81 -77 -101 -86 -66 -27 -117 -42 -169 -49 -67 -8 -653 -12
-653 -4 0 4 173 355 383 780 211 426 386 779 388 784 2 6 18 37 35 70 l32 60
298 -6 c185 -3 313 -10 335 -17z m1014 3 c-3 -11 -8 -31 -11 -44 -3 -13 -9
-32 -15 -43 -5 -10 -8 -18 -5 -18 3 0 -2 -16 -10 -35 -8 -19 -14 -38 -14 -42
-1 -12 -20 -83 -37 -132 -8 -24 -16 -51 -18 -60 -2 -9 -19 -70 -38 -136 -59
-198 -168 -588 -170 -605 0 -3 -6 -18 -13 -35 -7 -16 -13 -34 -13 -40 -1 -5
-6 -28 -12 -50 -6 -22 -13 -48 -15 -57 -7 -30 -12 -50 -38 -148 -14 -52 -28
-104 -31 -115 -3 -11 -13 -42 -23 -70 l-17 -50 -178 0 c-145 0 -176 2 -172 14
3 7 33 95 66 195 34 99 64 187 66 194 4 9 -21 12 -103 12 l-109 0 -23 -47
c-21 -46 -110 -215 -166 -318 l-27 -50 -175 0 c-96 0 -174 2 -174 5 0 3 29 54
65 114 36 59 65 110 65 112 0 2 22 41 49 86 26 46 77 135 112 198 34 63 91
160 124 215 34 55 78 129 97 165 63 115 90 163 160 284 37 65 68 120 68 122 0
2 13 25 29 52 29 50 41 71 131 232 29 52 58 100 65 105 7 6 111 10 264 10 247
0 252 0 246 -20z m1635 19 c0 -11 -226 -670 -235 -684 -4 -6 -5 -13 -3 -15 2
-2 32 42 67 98 35 56 74 118 86 137 12 19 73 116 135 215 62 99 123 195 135
213 l22 33 159 0 c109 0 158 -3 156 -10 -2 -12 -77 -128 -341 -532 l-164 -251
2 -182 c1 -99 3 -221 6 -271 2 -49 7 -146 10 -215 3 -69 8 -150 11 -180 l5
-55 -158 3 c-87 1 -169 4 -183 5 -29 2 -27 -35 -29 437 l-2 305 -60 -175 c-32
-96 -66 -199 -74 -228 -8 -28 -22 -69 -30 -90 -9 -20 -32 -84 -52 -142 -20
-58 -37 -107 -39 -108 -1 -2 -77 -4 -168 -5 -117 -2 -166 1 -166 9 0 6 6 29
14 50 8 22 31 84 51 139 34 95 134 377 168 475 8 25 25 72 37 105 12 33 52
143 87 245 36 102 91 259 123 350 32 91 61 174 65 185 4 11 10 29 15 40 4 11
14 36 21 55 7 19 16 37 20 40 5 4 309 8 309 4z m1270 -5 c0 -4 -6 -25 -14 -47
-8 -22 -17 -55 -20 -74 -7 -40 -43 -169 -50 -176 -3 -2 -69 -5 -146 -6 l-142
-1 -18 -53 c-11 -30 -21 -66 -24 -80 -3 -15 -15 -58 -26 -97 -12 -38 -23 -77
-25 -85 -2 -8 -7 -25 -11 -37 l-6 -23 136 3 c104 1 136 -1 136 -11 0 -11 -12
-56 -58 -212 l-19 -65 -141 -3 c-123 -2 -141 -5 -146 -20 -2 -9 -18 -62 -34
-117 -27 -89 -40 -139 -43 -162 -1 -5 -6 -19 -11 -33 -5 -14 -11 -32 -13 -40
-2 -8 -6 -23 -10 -32 -7 -17 5 -18 158 -18 161 0 166 -1 161 -20 -2 -11 -6
-30 -9 -42 -3 -13 -19 -68 -36 -123 -16 -55 -31 -103 -32 -108 -1 -4 -156 -8
-345 -10 -188 -1 -342 -2 -342 -2 1 0 72 236 75 249 3 11 21 69 41 129 19 60
37 117 39 126 2 9 17 60 35 113 17 54 33 109 36 123 2 14 13 49 23 78 11 29
33 102 51 162 18 61 40 135 50 165 10 30 32 102 50 160 17 58 38 123 45 145
11 35 37 121 40 135 0 3 9 30 18 60 l18 55 305 0 c167 0 304 -3 304 -6z m836
-33 c-2 -17 -7 -41 -10 -53 -3 -13 -8 -31 -10 -40 -2 -10 -11 -43 -19 -73 -9
-30 -17 -65 -19 -78 -3 -23 -6 -23 -112 -25 l-110 -2 -8 -30 c-13 -44 -25 -89
-33 -126 -2 -12 -9 -36 -15 -54 -6 -18 -13 -42 -15 -54 -3 -11 -7 -30 -10 -41
-6 -25 -11 -43 -25 -105 -14 -58 -18 -77 -26 -107 -3 -13 -7 -34 -10 -48 -3
-14 -8 -34 -11 -45 -4 -11 -8 -24 -9 -30 -2 -5 -5 -19 -8 -30 -3 -11 -17 -65
-31 -120 -15 -55 -28 -108 -31 -117 -2 -10 -6 -27 -9 -38 -3 -11 -7 -29 -10
-40 -3 -11 -8 -30 -11 -42 -3 -13 -6 -27 -8 -33 -8 -28 -16 -63 -21 -87 -11
-63 -16 -84 -22 -103 -4 -11 -7 -22 -8 -25 0 -3 -7 -29 -14 -57 l-13 -53 -146
-1 c-81 0 -159 -2 -174 -4 -31 -4 -33 2 -17 59 6 21 12 46 14 55 2 9 18 70 35
136 18 66 34 131 36 145 3 14 8 34 11 45 8 23 10 31 17 64 3 13 12 48 21 77 9
30 16 57 16 61 1 5 6 19 11 33 5 14 12 33 14 43 2 9 6 26 9 37 3 11 7 29 10
40 3 11 7 28 9 38 3 9 17 62 31 117 25 94 29 109 39 153 10 43 29 112 46 167
10 33 21 74 25 92 l6 32 -105 -2 c-58 -1 -106 2 -106 6 0 5 9 45 21 90 12 45
22 87 23 92 1 6 8 34 16 62 l14 53 370 2 c204 2 375 1 379 -1 5 -1 6 -17 3
-35z m729 23 c146 -33 189 -136 145 -349 -12 -58 -24 -116 -26 -130 -19 -96
-58 -182 -105 -229 -36 -37 -118 -81 -151 -82 -17 0 -12 -4 15 -12 101 -32
143 -111 134 -251 -3 -44 -8 -92 -11 -106 -4 -14 -8 -36 -11 -50 -3 -14 -7
-36 -10 -50 -3 -14 -8 -43 -11 -65 -12 -78 -64 -202 -104 -248 -36 -41 -108
-82 -164 -93 -11 -2 -32 -6 -46 -9 -14 -3 -169 -5 -345 -5 -257 -1 -319 2
-317 12 2 7 6 21 8 31 2 9 6 25 8 35 3 9 12 49 21 87 9 39 18 78 20 88 6 20 9
33 25 102 6 28 14 58 16 68 2 9 6 25 8 35 2 9 9 35 14 57 6 22 13 51 16 65 4
25 31 140 51 220 11 45 25 107 41 180 2 14 7 33 10 42 3 9 7 26 9 37 3 12 7
30 10 41 6 25 11 43 25 105 6 28 14 59 16 70 3 11 7 31 10 45 3 14 10 43 16
65 5 22 11 47 13 55 2 8 10 42 18 75 9 33 18 72 21 88 14 67 17 81 21 86 6 11
559 2 610 -10z m1047 -126 c-2 -134 -9 -331 -17 -538 -3 -94 -19 -864 -20
-968 0 -26 -4 -47 -10 -48 -5 0 -85 -1 -177 -2 l-168 -2 5 90 c8 155 15 249
21 288 l6 37 -110 0 -109 0 -32 -127 c-18 -71 -45 -163 -59 -206 l-27 -77
-172 -3 c-95 -1 -173 -1 -173 1 0 1 21 64 46 140 25 75 50 151 54 167 5 17 23
75 40 130 17 55 33 107 35 115 2 8 25 83 52 165 27 83 62 191 77 240 85 280
91 299 137 443 6 18 12 43 15 56 2 13 11 43 20 67 8 24 17 51 19 59 1 8 10 38
19 65 l17 50 257 -2 257 -2 -3 -138z m654 87 c-4 -30 -8 -68 -11 -85 -2 -16
-7 -55 -10 -85 -3 -30 -8 -73 -11 -95 -3 -22 -7 -58 -9 -80 -4 -35 -30 -231
-41 -305 -2 -14 -6 -50 -9 -80 -3 -30 -7 -66 -9 -80 -2 -14 -7 -45 -10 -69 -3
-23 -8 -55 -11 -70 -2 -14 -7 -51 -10 -81 -3 -30 -8 -71 -10 -90 -2 -19 -7
-62 -10 -95 -3 -33 -8 -75 -11 -92 l-5 -33 166 0 c158 0 166 -1 160 -19 -3
-10 -7 -34 -9 -52 -5 -38 -19 -149 -22 -164 -1 -5 -2 -23 -3 -40 l-1 -30 -340
0 -340 0 5 40 c7 49 16 114 20 136 2 9 6 40 10 69 4 29 8 60 10 69 3 18 12 82
20 156 3 28 9 64 12 80 3 17 7 39 9 50 3 23 12 85 19 135 3 19 7 55 11 79 3
25 7 47 9 51 2 3 6 41 10 85 3 44 8 87 11 96 3 9 7 34 9 55 3 22 8 57 11 79
10 70 12 79 18 135 4 30 9 62 11 70 3 8 7 35 10 59 3 23 7 55 10 70 2 14 7 49
11 76 3 28 8 59 9 70 2 11 4 25 4 30 1 6 62 10 162 10 l161 0 -6 -55z m732 51
c7 -1 11 -4 9 -8 -7 -12 -25 -181 -42 -398 -3 -44 -8 -96 -10 -115 -2 -19 -7
-71 -10 -115 -4 -44 -8 -97 -10 -119 -3 -21 -7 -68 -10 -105 -4 -36 -8 -79
-10 -96 -2 -16 -7 -64 -11 -105 -3 -41 -8 -86 -9 -100 -1 -14 -6 -68 -10 -120
-4 -52 -9 -98 -12 -102 -2 -5 71 -8 162 -8 l167 0 -5 -22 c-5 -18 -19 -211
-20 -265 0 -7 -5 -13 -11 -13 -6 -1 -159 -1 -341 -1 -310 0 -330 2 -328 18 1
10 5 43 8 73 4 30 8 66 10 80 2 14 7 57 10 95 13 137 15 151 20 200 3 28 8 73
12 100 7 57 7 60 17 170 4 44 9 96 12 115 2 19 6 58 9 85 3 28 7 59 9 71 4 18
10 77 21 206 5 62 14 146 21 203 9 72 11 90 19 185 4 47 8 87 10 90 2 4 259 4
323 1z m1487 -53 c0 -29 -2 -98 -3 -153 l-2 -100 -142 0 -143 0 -1 -25 c-1
-14 -5 -107 -9 -207 l-7 -183 131 0 132 0 -2 -155 -1 -155 -134 0 c-121 0
-134 -2 -135 -17 0 -10 -2 -54 -4 -98 -4 -82 -16 -386 -19 -485 -1 -40 -5 -55
-16 -57 -8 -1 -88 -4 -178 -5 l-162 -3 5 65 c3 36 7 119 10 185 3 66 7 163 11
215 3 52 7 136 9 185 3 50 7 135 10 190 6 116 13 260 20 430 5 124 15 289 20
360 2 22 4 47 4 55 1 13 41 15 303 13 l303 -2 0 -53z m466 -598 c1 -742 1
-713 17 -733 15 -17 67 -27 106 -20 58 11 58 12 51 682 -3 333 -8 632 -11 664
-5 54 -4 57 18 58 13 0 85 1 160 2 l138 2 1 -115 c0 -63 2 -162 4 -220 15
-446 21 -991 11 -1091 -8 -81 -60 -193 -104 -226 -73 -54 -128 -65 -317 -67
-146 -1 -184 4 -248 36 -65 32 -104 79 -139 167 -21 55 -22 66 -23 456 0 220
3 546 8 725 4 179 7 327 7 330 0 3 72 5 160 5 l160 0 1 -655z m2431 634 c77
-18 147 -64 185 -119 26 -39 61 -113 69 -145 2 -11 6 -29 9 -40 9 -38 15 -64
21 -104 3 -22 7 -43 9 -46 4 -6 15 -86 30 -210 5 -45 9 -74 19 -160 3 -25 8
-61 11 -80 2 -19 7 -57 10 -85 3 -27 8 -66 11 -85 11 -89 15 -143 15 -250 0
-63 -2 -125 -5 -137 -3 -13 -8 -32 -11 -44 -14 -64 -85 -128 -165 -149 -71
-19 -107 -21 -387 -23 -257 -2 -263 -2 -264 18 0 11 -2 29 -4 40 -1 11 -5 54
-9 95 -4 41 -9 91 -11 110 -2 19 -7 67 -10 105 -3 39 -8 95 -10 125 -2 30 -7
89 -10 130 -3 41 -8 93 -10 115 -2 22 -7 74 -10 115 -3 41 -8 86 -10 100 -2
14 -7 59 -10 100 -3 41 -8 98 -11 125 -6 66 -11 121 -19 225 -7 101 -13 166
-20 240 l-6 55 263 -2 c202 -2 279 -6 330 -19z m1111 -150 c27 -93 51 -180 53
-194 3 -14 16 -56 28 -95 13 -38 33 -101 44 -140 12 -38 30 -101 41 -139 12
-37 23 -78 25 -90 3 -11 26 -88 51 -171 42 -132 57 -182 95 -310 5 -16 25 -82
45 -145 20 -63 38 -122 40 -130 2 -8 11 -35 19 -59 9 -24 16 -46 16 -50 0 -3
-81 -6 -179 -6 l-180 0 -11 40 c-6 22 -13 50 -15 63 -3 12 -7 31 -10 42 -3 11
-7 29 -10 40 -3 11 -7 30 -10 41 -2 12 -9 36 -15 54 -6 18 -13 43 -16 56 -3
13 -7 31 -9 39 -2 8 -4 21 -4 28 -1 9 -30 12 -111 12 l-110 0 4 -25 c3 -14 8
-98 11 -187 4 -89 9 -170 10 -180 2 -10 -2 -18 -8 -19 -7 0 -85 0 -174 -1
l-162 0 -5 359 c-3 197 -8 536 -11 753 -3 217 -7 435 -10 483 -3 48 -4 91 -1
95 2 4 120 6 262 6 l259 -2 48 -168z m811 6 c30 -91 92 -271 136 -400 45 -129
85 -248 90 -265 6 -16 14 -39 20 -50 5 -11 20 -51 34 -90 13 -38 45 -130 70
-204 26 -74 49 -137 52 -140 3 -3 3 26 0 64 -3 39 -8 113 -11 165 -10 163 -17
265 -30 430 -3 30 -7 100 -10 155 -3 55 -8 127 -10 160 -2 33 -7 101 -10 150
-3 50 -8 113 -11 140 l-5 50 230 0 230 0 16 -58 c9 -32 18 -67 21 -78 2 -10 6
-28 9 -39 3 -11 7 -29 10 -40 3 -11 7 -28 9 -38 2 -9 9 -35 14 -57 6 -22 13
-51 16 -65 3 -14 7 -34 10 -45 2 -11 10 -42 16 -70 14 -62 19 -80 25 -105 3
-11 7 -29 10 -41 2 -11 6 -28 9 -37 3 -9 7 -28 10 -42 16 -77 38 -171 52 -220
9 -30 18 -63 20 -72 5 -21 12 -50 19 -75 2 -10 11 -49 20 -88 9 -38 18 -77 20
-85 4 -17 35 -145 41 -172 2 -10 6 -27 9 -38 3 -11 7 -29 10 -40 3 -11 7 -29
10 -40 11 -46 14 -57 24 -90 21 -68 27 -65 -144 -65 -163 0 -161 -1 -170 45
-2 12 -19 85 -20 90 -1 3 -5 23 -10 45 -10 44 -9 41 -18 75 -4 14 -9 36 -11
50 -3 14 -8 36 -11 50 -7 32 -16 80 -20 105 -1 11 -7 40 -13 65 -6 25 -13 56
-15 70 -7 33 -12 59 -36 161 -12 47 -23 104 -26 125 -4 21 -8 47 -11 56 -4 15
-7 27 -18 83 -2 11 -7 31 -10 45 -3 14 -8 37 -11 53 -11 57 -16 83 -21 99 -6
20 -13 52 -20 98 -3 19 -10 42 -15 50 -7 11 -8 6 -4 -15 3 -16 8 -61 11 -100
2 -38 7 -95 9 -125 3 -30 7 -95 11 -145 3 -49 7 -112 9 -140 4 -51 12 -164 20
-290 3 -38 7 -115 10 -170 3 -55 8 -122 10 -150 3 -27 8 -90 10 -140 l6 -90
-188 2 c-103 1 -191 2 -194 3 -3 0 -15 26 -27 58 -11 31 -34 95 -52 142 -74
200 -187 524 -302 870 -50 151 -95 280 -101 285 -6 6 -7 2 -3 -12 4 -12 9 -32
12 -45 4 -23 8 -41 19 -88 10 -47 15 -70 20 -97 3 -16 8 -35 10 -43 2 -8 7
-28 10 -45 7 -45 14 -75 19 -93 3 -9 7 -33 10 -52 3 -19 10 -50 15 -67 5 -18
8 -33 6 -33 -3 0 -1 -10 4 -23 8 -21 16 -59 26 -122 4 -24 16 -86 19 -100 2
-5 6 -21 9 -35 4 -14 9 -36 11 -50 3 -14 7 -36 10 -50 3 -14 8 -36 11 -50 3
-14 7 -36 10 -50 12 -65 27 -139 36 -175 5 -22 12 -51 15 -65 3 -14 7 -34 9
-45 4 -19 -1 -20 -145 -20 -125 0 -151 3 -155 15 -7 25 -15 72 -21 120 -3 25
-7 52 -10 60 -3 8 -10 40 -14 70 -5 30 -11 66 -15 80 -5 25 -10 49 -20 112 -3
17 -7 34 -9 37 -2 3 -7 26 -10 51 -3 25 -8 56 -11 70 -3 14 -17 93 -31 175
-14 83 -36 206 -50 275 -14 69 -26 136 -28 150 -2 14 -13 81 -25 150 -28 160
-30 170 -36 200 -4 22 -25 133 -25 134 0 1 106 1 235 1 l234 0 55 -165z m1607
90 c13 -41 24 -79 26 -85 1 -5 4 -20 7 -31 2 -12 9 -39 15 -60 6 -22 11 -43
11 -49 0 -6 -51 -9 -140 -7 -77 2 -140 0 -140 -5 0 -4 7 -27 15 -50 8 -22 16
-52 19 -65 8 -37 13 -59 31 -123 9 -33 18 -67 20 -75 2 -8 5 -22 7 -30 1 -8 7
-18 11 -21 4 -3 67 -6 140 -7 l132 -1 12 -43 c7 -24 22 -77 33 -118 11 -41 24
-87 29 -102 l9 -28 -139 0 c-76 0 -139 -3 -139 -7 0 -4 16 -68 36 -142 20 -75
38 -147 41 -160 2 -14 6 -28 9 -33 3 -5 8 -21 10 -36 3 -15 8 -30 12 -34 4 -4
81 -9 171 -10 136 -3 165 -6 167 -18 6 -32 13 -59 44 -163 18 -59 30 -110 27
-113 -2 -3 -155 -6 -340 -7 l-335 -2 -22 80 c-12 44 -24 88 -26 98 -2 9 -6 26
-9 37 -12 48 -16 66 -21 90 -3 14 -23 95 -45 180 -22 85 -42 163 -45 173 -2 9
-6 25 -8 35 -3 9 -19 71 -36 136 -17 66 -33 133 -36 150 -3 17 -16 74 -30 126
-14 52 -27 103 -30 113 -2 9 -6 25 -9 35 -17 63 -85 331 -89 352 -3 14 -7 34
-10 45 -8 35 -8 40 -7 45 0 3 136 5 300 5 l299 0 23 -75z m853 -412 c251 -500
409 -809 413 -805 1 2 -34 108 -78 237 -96 280 -209 619 -214 640 -2 8 -31 96
-65 195 -34 99 -64 189 -66 200 -5 19 0 20 140 20 l145 0 49 -140 c28 -77 116
-342 197 -590 81 -247 168 -508 193 -580 58 -165 131 -378 131 -385 1 -3 -109
-5 -243 -5 l-245 0 -46 85 c-25 47 -174 342 -330 655 -156 314 -284 565 -285
560 0 -6 15 -55 33 -110 19 -55 51 -154 72 -220 20 -66 44 -137 51 -157 8 -21
12 -38 9 -38 -2 0 0 -12 6 -27 6 -16 12 -35 15 -43 8 -33 115 -362 154 -475
23 -66 43 -127 45 -135 2 -8 9 -31 14 -50 6 -19 11 -37 11 -40 0 -5 -312 -2
-315 2 -3 5 -42 139 -75 258 -17 63 -49 171 -70 240 -45 149 -63 215 -59 215
1 0 -3 10 -9 21 -6 12 -14 36 -17 54 -3 18 -11 42 -17 54 -6 11 -11 22 -10 24
3 3 -8 52 -24 104 -8 25 -17 58 -20 74 -3 15 -9 35 -15 46 -5 10 -8 18 -5 18
3 0 -2 16 -10 35 -8 19 -12 35 -10 35 3 0 -2 16 -10 35 -8 19 -12 35 -10 35 3
0 -2 16 -10 35 -8 19 -14 36 -13 37 1 2 -4 23 -11 48 -7 25 -14 52 -16 60 -2
8 -17 60 -34 115 -36 118 -41 136 -36 144 2 3 104 5 226 4 l222 -2 242 -483z
m1131 482 c6 0 16 -15 24 -32 25 -64 89 -233 95 -253 6 -19 2 -20 -104 -18
-61 1 -110 1 -110 -1 0 -2 21 -57 46 -123 25 -65 67 -179 94 -253 49 -138 140
-387 164 -450 8 -19 39 -107 71 -195 50 -141 112 -311 129 -355 5 -13 -16 -15
-161 -13 -93 1 -173 2 -179 2 -6 1 -16 16 -22 34 -6 17 -40 118 -76 222 -37
105 -86 249 -111 320 -24 72 -62 182 -85 245 -23 63 -46 126 -50 140 -5 14
-30 84 -55 155 -26 72 -53 150 -61 175 -8 25 -19 58 -26 74 l-11 28 -108 -4
-108 -3 -47 145 c-26 80 -49 150 -51 155 -2 7 123 9 364 8 203 -2 373 -3 378
-3z m748 -52 c65 -123 138 -260 192 -363 126 -239 308 -578 360 -670 12 -22
41 -74 62 -115 22 -41 78 -142 125 -225 82 -145 148 -264 148 -268 0 -1 -80
-1 -177 -1 l-178 2 -105 206 -105 206 -102 0 c-79 0 -103 -3 -103 -13 0 -8 20
-76 45 -153 25 -76 47 -148 49 -159 2 -11 9 -33 15 -48 6 -16 11 -31 11 -35 0
-10 -343 -3 -353 7 -4 4 -10 17 -12 29 -9 40 -13 56 -40 162 -15 58 -29 113
-31 123 -2 9 -6 26 -9 37 -3 11 -7 29 -10 40 -3 11 -7 28 -9 38 -2 9 -9 35
-14 57 -6 22 -13 51 -16 65 -5 23 -9 42 -21 90 -3 11 -7 28 -9 38 -2 9 -14 53
-26 97 -12 44 -24 88 -26 98 -2 9 -6 26 -9 37 -3 11 -7 29 -10 40 -3 11 -7 29
-10 40 -3 11 -7 28 -10 38 -2 9 -11 44 -20 77 -8 33 -18 68 -20 78 -3 9 -7 25
-10 35 -14 52 -67 261 -71 282 -2 14 -7 32 -10 40 -8 20 -33 122 -34 135 0 6
91 9 257 8 l257 -1 29 -54z m655 -8 c17 -36 56 -123 88 -195 31 -71 109 -249
174 -395 64 -146 124 -283 132 -305 9 -22 28 -67 43 -100 14 -33 32 -73 39
-90 7 -16 35 -78 62 -137 l49 -108 161 0 161 0 26 -53 c15 -29 27 -56 27 -61
0 -4 18 -46 40 -93 23 -47 39 -88 36 -90 -3 -3 -155 -5 -337 -5 l-332 1 -19
43 c-11 24 -38 88 -60 143 -22 55 -65 159 -95 230 -59 139 -63 148 -116 270
-20 44 -61 143 -92 219 -50 121 -75 183 -115 271 -5 11 -37 85 -70 165 -70
166 -69 163 -108 250 -52 116 -65 105 117 105 l159 0 30 -65z"/>
<path d="M7118 11228 c-8 -13 -26 -48 -40 -78 -48 -102 -131 -275 -135 -282
-2 -5 27 -8 65 -8 112 0 127 16 246 269 30 63 33 106 10 115 -9 3 -42 6 -74 6
-49 0 -60 -3 -72 -22z"/>
<path d="M6794 10564 c-8 -18 -14 -36 -14 -39 0 -3 -40 -86 -90 -186 -49 -99
-90 -182 -90 -185 0 -2 36 -3 80 -1 98 4 121 18 170 108 36 67 114 239 124
275 11 38 -13 53 -93 57 l-73 4 -14 -33z"/>
<path d="M8193 11208 c-56 -110 -145 -279 -232 -443 -30 -55 -67 -124 -82
-152 l-28 -53 72 0 72 0 25 73 c13 39 27 79 31 87 4 8 28 80 54 160 65 200
110 328 129 373 36 83 8 52 -41 -45z"/>
<path d="M12719 11248 c0 -2 -2 -13 -5 -25 -2 -12 -15 -69 -29 -125 -13 -57
-31 -133 -38 -170 l-15 -68 65 0 c86 0 119 18 134 73 6 23 15 53 20 67 4 14
13 52 20 85 29 145 19 165 -83 165 -37 0 -68 -1 -69 -2z"/>
<path d="M12582 10591 c-5 -3 -12 -19 -15 -36 -3 -16 -9 -41 -12 -55 -3 -14
-8 -34 -10 -45 -2 -11 -6 -30 -9 -42 -11 -41 -16 -67 -30 -138 -8 -38 -17 -83
-21 -98 l-7 -28 68 2 c80 2 118 18 139 59 9 17 13 30 10 30 -3 0 -1 8 4 18 5
9 12 31 15 47 3 17 12 68 21 115 26 132 26 136 6 154 -19 17 -138 30 -159 17z"/>
<path d="M13816 11298 c-7 -37 -14 -69 -21 -98 -3 -11 -7 -30 -10 -42 -2 -12
-11 -42 -20 -68 -9 -26 -18 -56 -20 -68 -3 -12 -7 -31 -10 -42 -3 -11 -7 -29
-10 -40 -3 -11 -7 -29 -10 -40 -3 -11 -7 -29 -10 -40 -3 -11 -8 -30 -11 -42
-3 -13 -6 -27 -8 -33 -1 -5 -10 -37 -20 -70 -10 -33 -20 -67 -21 -75 -2 -8 -8
-30 -14 -47 l-10 -33 75 0 c52 0 74 4 75 13 1 6 3 23 4 37 2 14 6 81 9 150 3
69 8 139 10 156 3 17 8 71 11 120 6 91 7 98 20 222 7 74 2 98 -9 40z"/>
<path d="M19665 11168 c3 -43 8 -86 9 -95 2 -10 7 -52 10 -93 4 -41 9 -91 11
-110 3 -19 7 -64 10 -100 9 -113 16 -181 21 -203 2 -12 7 -51 10 -87 4 -36 8
-76 9 -90 4 -30 17 -200 18 -217 0 -9 18 -13 56 -13 118 0 127 16 106 180 -3
30 -8 73 -10 95 -6 60 -15 139 -19 161 -2 11 -7 59 -11 107 -3 47 -8 94 -10
105 -2 10 -6 41 -9 68 -7 50 -9 74 -21 204 -14 153 -30 173 -131 169 l-56 -3
7 -78z"/>
<path d="M20736 11240 c2 -47 7 -130 9 -185 3 -55 7 -125 10 -155 8 -108 19
-315 16 -327 -1 -10 19 -13 75 -13 60 0 75 3 71 14 -7 19 -118 465 -124 499
-2 16 -17 79 -33 140 l-29 112 5 -85z"/>
<path d="M25960 11307 c0 -5 14 -51 31 -102 16 -52 32 -107 35 -121 3 -15 9
-35 14 -44 5 -9 11 -29 14 -44 3 -16 24 -86 46 -157 23 -72 43 -135 44 -142 2
-7 9 -32 16 -57 16 -54 17 -57 19 -70 1 -9 151 -15 151 -6 0 2 -62 129 -139
282 -76 153 -159 322 -184 374 -26 52 -47 91 -47 87z"/>
<path d="M18779 10770 c-1 -3 0 -9 1 -15 3 -16 10 -43 15 -65 3 -11 7 -29 10
-40 3 -11 7 -29 10 -40 3 -11 7 -29 10 -40 3 -11 7 -29 10 -40 3 -11 7 -28 9
-37 3 -10 12 -45 21 -78 9 -33 18 -69 21 -80 21 -101 24 -69 9 100 -2 17 -6
75 -10 130 -4 55 -9 116 -10 135 -2 19 -4 42 -4 51 -1 13 -13 18 -46 21 -25 2
-46 1 -46 -2z"/>
<path d="M11993 7063 c2986 -2 7868 -2 10850 0 2982 1 540 2 -5428 2 -5967 0
-8407 -1 -5422 -2z"/>
<path d="M17875 4155 c0 -665 1 -939 2 -608 2 331 2 875 0 1210 -1 334 -2 64
-2 -602z"/>
</g>
</svg>
